<?xml version="1.0" encoding="UTF-8" standalone="no"?>
<svg
   xmlns:dc="http://purl.org/dc/elements/1.1/"
   xmlns:cc="http://creativecommons.org/ns#"
   xmlns:rdf="http://www.w3.org/1999/02/22-rdf-syntax-ns#"
   xmlns:svg="http://www.w3.org/2000/svg"
   xmlns="http://www.w3.org/2000/svg"
   id="svg8"
   version="1.1"
   viewBox="0 0 10.583333 10.583334"
   height="40"
   width="40">
  <defs
     id="defs2" />
  <metadata
     id="metadata5">
    <rdf:RDF>
      <cc:Work
         rdf:about="">
        <dc:format>image/svg+xml</dc:format>
        <dc:type
           rdf:resource="http://purl.org/dc/dcmitype/StillImage" />
        <dc:title></dc:title>
      </cc:Work>
    </rdf:RDF>
  </metadata>
  <g
     transform="translate(0,-286.41665)"
     id="layer1">
    <path
       id="path553"
       d="m 1.323434,286.94556 c -0.137041,-1.6e-4 -0.2739921,0.0352 -0.39687503,0.10594 -0.24591,0.14174 -0.39743,0.40399 -0.3973921,0.68781 v 6.61511 c 4.1e-6,1.16901 0.94766913,2.11667 2.11666703,2.11667 H 7.9375 c 1.1690035,0 2.116666,-0.94766 2.116666,-2.11667 v -5.29166 c 0,-1.16901 -0.9476625,-2.11667 -2.116666,-2.11667 H 5.2916669 c -1.169003,0 -2.1166659,0.94766 -2.1166659,2.11667 v 2.64583 c 0,1.169 0.9476629,2.11667 2.1166659,2.11667 0.79375,0 0.79375,0 1.3229172,0 0.283246,-1.2e-4 0.5450009,-0.15116 0.6868128,-0.39635 0.142099,-0.24541 0.1424811,-0.54798 0.00101,-0.79375 -0.141728,-0.24592 -0.403979,-0.39744 -0.6878129,-0.3974 H 5.2916669 c -0.2922508,0 -0.5291659,-0.23692 -0.5291659,-0.52917 v -2.64583 c 0,-0.29225 0.2369151,-0.52917 0.5291659,-0.52917 H 7.9375 c 0.292251,0 0.5291669,0.23692 0.5291669,0.52917 v 5.29166 c 0,0.29225 -0.2369159,0.52917 -0.5291669,0.52917 H 2.6458339 c -0.292245,0 -0.529163,-0.23691 -0.529167,-0.52917 v -6.61458 c -1.18e-4,-0.28324 -0.151163,-0.5455 -0.396358,-0.68732 -0.122704,-0.071 -0.2598339,-0.10678 -0.3968749,-0.10697 z m 5.2911501,2.64636 c -0.4383762,0 -0.79375,0.35538 -0.79375,0.79375 0,0.43838 0.3553738,0.79375 0.79375,0.79375 0.4383759,0 0.79375,-0.35537 0.79375,-0.79375 0,-0.43837 -0.3553741,-0.79375 -0.79375,-0.79375 z"
       style="stroke-width:0.13229166;stroke-miterlimit:4;stroke-dasharray:none" />
  </g>
</svg>
