<?xml version="1.0" encoding="UTF-8" standalone="no"?>
<svg
   xmlns:dc="http://purl.org/dc/elements/1.1/"
   xmlns:cc="http://creativecommons.org/ns#"
   xmlns:rdf="http://www.w3.org/1999/02/22-rdf-syntax-ns#"
   xmlns:svg="http://www.w3.org/2000/svg"
   xmlns="http://www.w3.org/2000/svg"
   id="svg8"
   version="1.1"
   viewBox="0 0 10.583333 10.583334"
   height="40"
   width="40">
  <defs
     id="defs2" />
  <metadata
     id="metadata5">
    <rdf:RDF>
      <cc:Work
         rdf:about="">
        <dc:format>image/svg+xml</dc:format>
        <dc:type
           rdf:resource="http://purl.org/dc/dcmitype/StillImage" />
        <dc:title></dc:title>
      </cc:Work>
    </rdf:RDF>
  </metadata>
  <g
     transform="translate(0,-286.41665)"
     id="layer1">
    <path
       id="circle594"
       d="m 3.9876704,286.94496 c -0.1455388,-0.004 -0.289273,0.0328 -0.4154789,0.10541 -0.2459112,0.14173 -0.3974291,0.40658 -0.397391,0.6904 l -1.1e-6,1.32292 c 0,0.29225 -0.236915,0.52916 -0.529166,0.52916 -0.608295,0.0138 -0.79375,0 -1.322917,0 -0.283246,1.1e-4 -0.54496797,0.15116 -0.68677897,0.39635 -0.14211,0.2454 -0.142509,0.54798 -0.001,0.79375 0.141727,0.2459 0.40397897,0.39743 0.68781297,0.3974 h 1.3229159 c 1.1690031,0 2.116667,-0.94766 2.116667,-2.11666 0,-0.52917 0.0046,-1.07194 0,-1.32292 -1.18e-4,-0.28324 -0.1511638,-0.54756 -0.396358,-0.68937 -0.1151757,-0.0666 -0.2452518,-0.10324 -0.3782708,-0.10644 z m 2.645833,0 c -0.145539,-0.004 -0.2892729,0.0328 -0.4154778,0.10541 -0.2459112,0.14173 -0.3974301,0.40399 -0.3973923,0.68781 -0.00259,0.60745 -0.0056,0.75168 0,1.32551 0,1.169 0.9476638,2.11672 2.1166668,2.11672 0.529166,-3e-5 0.793749,5e-5 1.322916,-6e-5 0.283246,-10e-5 0.545483,-0.1511 0.687293,-0.39629 0.1421099,-0.2454 0.1425089,-0.54798 0.001,-0.79375 -0.141726,-0.2459 -0.403979,-0.39743 -0.687813,-0.3974 h -1.323432 c -0.292251,0 -0.529167,-0.23691 -0.529167,-0.52917 v -1.32297 c -1.23e-4,-0.28324 -0.151174,-0.54761 -0.396363,-0.68943 -0.11518,-0.0666 -0.245254,-0.10324 -0.3782727,-0.10644 z m -5.310787,0.002 c -0.43837597,1e-4 -0.79374997,0.35546 -0.79374997,0.79385 0,0.43838 0.355374,0.79375 0.79374997,0.79375 0.438376,0 0.79375,-0.35537 0.79375,-0.79375 0,-0.43839 -0.355374,-0.79375 -0.79375,-0.79375 z m 7.9374997,0 c -0.438376,0 -0.79375,0.35536 -0.79375,0.79375 0,0.43838 0.355374,0.79375 0.79375,0.79375 0.438377,0 0.7937499,-0.35537 0.7937499,-0.79375 0,-0.43839 -0.3553729,-0.79375 -0.7937499,-0.79375 z m -6.6145827,5.2901 v 0 c -1.169003,1e-4 -2.11666697,0.94776 -2.11666697,2.11677 v 1.32135 0.003 c 1.18e-4,0.28323 0.151165,0.54496 0.396359,0.68678 0.24540197,0.1421 0.54797797,0.1425 0.79374997,0 0.24591,-0.14174 0.397429,-0.404 0.397391,-0.68781 v -1.32292 c 0,-0.29226 0.236916,-0.52917 0.529167,-0.52917 h 5.2916667 c 0.29225,10e-6 0.529166,0.23692 0.529166,0.52918 v 1.32085 0.003 c 1.18e-4,0.28324 0.151166,0.54499 0.396358,0.68681 0.245404,0.14208 0.547979,0.14247 0.79375,0 0.245912,-0.14173 0.3974299,-0.40402 0.3973919,-0.68783 v -1.32292 c 0,-1.16901 -0.9476639,-2.11667 -2.1166659,-2.11667 -1.7638886,-1.8e-4 -3.5277775,1.6e-4 -5.2916667,0 z m 1.3224001,2.6474 c -0.283246,1e-4 -0.5449681,0.15115 -0.68678,0.39634 -0.1421091,0.2454 -0.1425081,0.54798 -0.00101,0.79375 0.141727,0.2459 0.4039801,0.39743 0.6878129,0.39741 h 2.6463491 c 0.2832466,-1.1e-4 0.5454836,-0.15116 0.6872966,-0.39635 0.142109,-0.2454 0.142508,-0.54798 0.001,-0.79375 -0.141727,-0.2459 -0.404496,-0.39743 -0.6883304,-0.3974 z"
       style="stroke-width:0.26499999;stroke-miterlimit:4;stroke-dasharray:none" />
  </g>
</svg>
