<?xml version="1.0" encoding="UTF-8" standalone="no"?>
<svg
   xmlns:dc="http://purl.org/dc/elements/1.1/"
   xmlns:cc="http://creativecommons.org/ns#"
   xmlns:rdf="http://www.w3.org/1999/02/22-rdf-syntax-ns#"
   xmlns:svg="http://www.w3.org/2000/svg"
   xmlns="http://www.w3.org/2000/svg"
   id="svg8"
   version="1.1"
   viewBox="0 0 10.583333 10.583334"
   height="40"
   width="40">
  <defs
     id="defs2" />
  <metadata
     id="metadata5">
    <rdf:RDF>
      <cc:Work
         rdf:about="">
        <dc:format>image/svg+xml</dc:format>
        <dc:type
           rdf:resource="http://purl.org/dc/dcmitype/StillImage" />
        <dc:title></dc:title>
      </cc:Work>
    </rdf:RDF>
  </metadata>
  <g
     transform="translate(0,-286.41665)"
     id="layer1">
    <path
       id="path640"
       d="m 1.3229308,286.94582 c -0.2832462,1.1e-4 -0.54496778,0.15116 -0.68677968,0.39635 -0.1421096,0.2454 -0.1425035,0.54797 -0.00103,0.79375 0.1417275,0.2459 0.40397958,0.39743 0.68781318,0.3974 H 2.645851 c 0.2922508,0 0.5291666,0.23691 0.5291666,0.52917 0,0.29226 -0.2369158,0.52916 -0.5291666,0.52916 -1.1690026,0 -2.11666658,0.94766 -2.11666658,2.11667 0,1.16901 0.94766398,2.11667 2.11666668,2.11667 0.2922508,0 0.5291666,0.2369 0.5291666,0.52916 0,0.29226 -0.2369158,0.52917 -0.5291666,0.52917 H 1.3229306 c -0.2832463,1.1e-4 -0.54496758,0.15116 -0.68677948,0.39635 -0.1421096,0.2454 -0.1425035,0.54797 -0.00103,0.79375 0.1417275,0.2459 0.40397958,0.39743 0.68781318,0.3974 H 2.645851 c 1.1690027,0 2.1166666,-0.94766 2.1166666,-2.11667 0,-1.16901 -0.9476639,-2.11666 -2.1166666,-2.11666 -0.2922508,0 -0.5291667,-0.23691 -0.5291667,-0.52917 0,-0.29226 0.2369159,-0.52917 0.5291667,-0.52917 1.1690027,0 2.1166666,-0.94765 2.1166666,-2.11666 0,-1.1688 -0.9473491,-2.11638 -2.1161499,-2.11667 z m 6.6145831,0 c -1.1690025,0 -2.1166664,0.94766 -2.1166664,2.11667 0,1.16901 0.9476639,2.11666 2.1166664,2.11666 0.292251,0 0.529167,0.23691 0.529167,0.52917 0,0.29226 -0.236916,0.52917 -0.529167,0.52917 -1.1690025,0 -2.1166664,0.94765 -2.1166664,2.11666 0,1.16901 0.9476639,2.11667 2.1166664,2.11667 h 1.322917 c 0.283246,-1.1e-4 0.544968,-0.15116 0.68678,-0.39635 0.1421091,-0.2454 0.1425031,-0.54797 10e-4,-0.79375 -0.141728,-0.2459 -0.40398,-0.39743 -0.687813,-0.3974 h -1.322915 c -0.292251,0 -0.529167,-0.23691 -0.529167,-0.52917 0,-0.29226 0.236916,-0.52916 0.529167,-0.52916 1.169002,0 2.1166661,-0.94766 2.1166661,-2.11667 0,-1.16901 -0.9476641,-2.11667 -2.1166661,-2.11667 -0.292251,0 -0.529167,-0.2369 -0.529167,-0.52916 -3e-7,-0.29205 0.236601,-0.52888 0.52865,-0.52917 0.265101,0 1.058851,0 1.323435,0 0.283246,-1.1e-4 0.544968,-0.15116 0.68678,-0.39635 0.1421091,-0.2454 0.1425031,-0.54797 0.001,-0.79375 -0.141728,-0.2459 -0.40398,-0.39743 -0.687813,-0.3974 z"
       style="stroke-width:0.26499999;stroke-miterlimit:4;stroke-dasharray:none" />
  </g>
</svg>
