<?xml version="1.0" encoding="UTF-8" standalone="no"?>
<svg
   xmlns:dc="http://purl.org/dc/elements/1.1/"
   xmlns:cc="http://creativecommons.org/ns#"
   xmlns:rdf="http://www.w3.org/1999/02/22-rdf-syntax-ns#"
   xmlns:svg="http://www.w3.org/2000/svg"
   xmlns="http://www.w3.org/2000/svg"
   id="svg8"
   version="1.1"
   viewBox="0 0 10.583333 10.583334"
   height="40"
   width="40">
  <defs
     id="defs2" />
  <metadata
     id="metadata5">
    <rdf:RDF>
      <cc:Work
         rdf:about="">
        <dc:format>image/svg+xml</dc:format>
        <dc:type
           rdf:resource="http://purl.org/dc/dcmitype/StillImage" />
        <dc:title></dc:title>
      </cc:Work>
    </rdf:RDF>
  </metadata>
  <g
     transform="translate(0,-286.41665)"
     id="layer1">
    <path
       id="path705"
       d="m 1.3228599,286.94582 v 0 c -0.2832462,1.1e-4 -0.54496779,0.15116 -0.68677979,0.39635 -0.1421095,0.2454 -0.1425051,0.54797 -0.00103,0.79375 0.1417275,0.2459 0.40397959,0.39743 0.68781329,0.3974 h 6.6145835 c 0.2922512,0 0.5291662,0.23691 0.5291662,0.52917 -10e-7,1.05833 0,6.08541 0,6.61458 1.18e-4,0.28324 0.151165,0.54496 0.396359,0.68678 0.245402,0.14211 0.547978,0.1425 0.79375,0 0.245911,-0.14174 0.3974289,-0.40399 0.3973909,-0.68781 v -6.61459 c 0,-1.169 -0.9476639,-2.11666 -2.1166661,-2.11666 z m 0,2.64687 c -0.2832462,10e-5 -0.54496779,0.15115 -0.68677979,0.39634 -0.1421095,0.2454 -0.1425051,0.54798 -0.00103,0.79375 0.1417275,0.2459 0.40397959,0.39743 0.68781329,0.39741 h 3.9687502 c 0.2922508,0 0.5291667,0.2369 0.5291667,0.52916 v 2.64584 c 0,0.29225 -0.2369159,0.52916 -0.5291667,0.52916 H 1.3228615 c -0.2832463,1.3e-4 -0.54496789,0.15116 -0.68677979,0.39635 -0.1421095,0.2454 -0.1425051,0.54798 -0.00103,0.79375 0.1417275,0.2459 0.40397959,0.39743 0.68781329,0.3974 h 3.9687502 c 1.1690027,0 2.1166666,-0.94766 2.1166666,-2.11666 v -2.64584 c 0,-1.16901 -0.9476639,-2.11666 -2.1166666,-2.11666 z m 0,2.64583 c -0.2832462,1e-4 -0.54496779,0.15115 -0.68677979,0.39634 -0.1421095,0.24541 -0.1425051,0.54798 -0.00103,0.79375 0.1417275,0.24591 0.40397959,0.39743 0.68781329,0.39741 h 2.6458335 c 0.2832463,-1.1e-4 0.5449679,-0.15116 0.6867798,-0.39635 0.1421095,-0.2454 0.1425051,-0.54798 0.00103,-0.79375 -0.1417275,-0.2459 -0.4039795,-0.39743 -0.6878132,-0.3974 z"
       style="stroke-width:0.26499999;stroke-miterlimit:4;stroke-dasharray:none" />
  </g>
</svg>
