<?xml version="1.0" encoding="UTF-8" standalone="no"?>
<svg
   xmlns:dc="http://purl.org/dc/elements/1.1/"
   xmlns:cc="http://creativecommons.org/ns#"
   xmlns:rdf="http://www.w3.org/1999/02/22-rdf-syntax-ns#"
   xmlns:svg="http://www.w3.org/2000/svg"
   xmlns="http://www.w3.org/2000/svg"
   id="svg8"
   version="1.1"
   viewBox="0 0 10.583333 10.583334"
   height="40"
   width="40">
  <defs
     id="defs2" />
  <metadata
     id="metadata5">
    <rdf:RDF>
      <cc:Work
         rdf:about="">
        <dc:format>image/svg+xml</dc:format>
        <dc:type
           rdf:resource="http://purl.org/dc/dcmitype/StillImage" />
        <dc:title></dc:title>
      </cc:Work>
    </rdf:RDF>
  </metadata>
  <g
     transform="translate(0,-286.41665)"
     id="layer1">
    <path
       id="circle778"
       d="m 1.3227154,286.94562 a 0.79375,0.79375 0 0 0 -0.79375003,0.79375 0.79375,0.79375 0 0 0 0.79375003,0.79375 0.79375,0.79375 0 0 0 0.79375,-0.79375 0.79375,0.79375 0 0 0 -0.79375,-0.79375 z m 7.9374997,0 a 0.79375,0.79375 0 0 0 -0.79375,0.79375 0.79375,0.79375 0 0 0 0.79375,0.79375 0.79375,0.79375 0 0 0 0.7937499,-0.79375 0.79375,0.79375 0 0 0 -0.7937499,-0.79375 z m -3.9687497,0 c -1.1690027,0 -2.1166667,0.94713 -2.1166667,2.11614 v 1.32291 c 1.178e-4,0.28324 0.1511644,0.54653 0.3963583,0.68834 0.245587,0.14179 0.548163,0.14179 0.79375,0 0.2459109,-0.14173 0.3974293,-0.40399 0.3973917,-0.68781 v -1.32291 c 0,-0.29226 0.2369159,-0.52864 0.5291667,-0.52864 0.2920442,0 0.5288746,0.23659 0.5291667,0.52864 v 1.32291 c 1.18e-4,0.28327 0.1511644,0.54653 0.3963582,0.68834 0.2455868,0.14179 0.5481628,0.14179 0.7937498,0 0.245911,-0.14173 0.39743,-0.40399 0.397392,-0.68781 v -1.32291 c 0,-1.16901 -0.947664,-2.11638 -2.1166667,-2.11667 z m 3.9878707,2.64324 v 0.003 c -0.145589,-0.003 -0.289327,0.0332 -0.415479,0.10594 -0.245911,0.14173 -0.397429,0.40452 -0.397392,0.68834 v 1.32291 c 0,0.29226 -0.236916,0.52864 -0.529166,0.52864 -1.169003,0 -2.116667,0.94766 -2.116667,2.11667 0,1.169 0.947664,2.11666 2.116667,2.11666 h 1.322916 c 0.283247,-1e-4 0.545485,-0.15168 0.687297,-0.39687 0.1421089,-0.2454 0.1425049,-0.54798 10e-4,-0.79375 -0.141727,-0.24591 -0.40398,-0.39741 -0.687813,-0.39738 h -1.32343 c -0.292251,0 -0.529167,-0.23744 -0.529167,-0.5297 0,-0.29225 0.236916,-0.52916 0.529167,-0.52916 1.169002,0 2.1166659,-0.94713 2.1166659,-2.11614 v -1.32292 c -1.17e-4,-0.28358 -0.1511639,-0.54737 -0.3963579,-0.68919 -0.115223,-0.0664 -0.245296,-0.10287 -0.378271,-0.10594 z m -7.9375003,0 v 0 c -0.1455888,-0.003 -0.2893264,0.0332 -0.41547863,0.10594 -0.2459109,0.14174 -0.3974293,0.40399 -0.3973918,0.68781 v 1.32551 c 0,1.16901 0.94766403,2.11614 2.11666673,2.11614 0.2922508,0 0.5291666,0.23691 0.5291666,0.52916 0,0.29226 -0.2369158,0.52917 -0.5291666,0.52917 H 1.3227154 c -0.2832462,1.1e-4 -0.54496783,0.15065 -0.68677973,0.39584 -0.1421096,0.2454 -0.1425051,0.54798 -0.00103,0.79375 0.1417275,0.24591 0.40397963,0.39743 0.68781323,0.39741 h 1.3229168 c 1.1690027,0 2.1166666,-0.94766 2.1166666,-2.11667 0,-1.16901 -0.9476639,-2.11667 -2.1166666,-2.11667 -0.2922509,0 -0.5291667,-0.2369 -0.5291667,-0.52916 v -1.32292 c -1.178e-4,-0.28324 -0.1511644,-0.54652 -0.3963583,-0.68834 -0.1152226,-0.0664 -0.2452962,-0.10287 -0.3782713,-0.10594 z"
       style="stroke-width:0.26499999;stroke-miterlimit:4;stroke-dasharray:none" />
  </g>
</svg>
