<?xml version="1.0" encoding="UTF-8" standalone="no"?>
<svg
   xmlns:dc="http://purl.org/dc/elements/1.1/"
   xmlns:cc="http://creativecommons.org/ns#"
   xmlns:rdf="http://www.w3.org/1999/02/22-rdf-syntax-ns#"
   xmlns:svg="http://www.w3.org/2000/svg"
   xmlns="http://www.w3.org/2000/svg"
   id="svg8"
   version="1.1"
   viewBox="0 0 10.583333 10.583334"
   height="40"
   width="40">
  <defs
     id="defs2" />
  <metadata
     id="metadata5">
    <rdf:RDF>
      <cc:Work
         rdf:about="">
        <dc:format>image/svg+xml</dc:format>
        <dc:type
           rdf:resource="http://purl.org/dc/dcmitype/StillImage" />
        <dc:title></dc:title>
      </cc:Work>
    </rdf:RDF>
  </metadata>
  <g
     transform="translate(0,-286.41665)"
     id="layer1">
    <path
       id="path840"
       d="m 7.9375001,286.94426 c -1.76389,0 -3.527778,-5e-5 -5.2916667,0.003 -1.1687961,0 -2.11637456,0.94734 -2.11666666,2.11613 -5.3e-7,0.44098 0,0.88194 0,1.32292 1.1774e-4,0.28291 0.1511644,0.54464 0.39635828,0.68646 0.24540258,0.14208 0.54797848,0.14247 0.79374998,0 0.2459109,-0.14174 0.3974293,-0.40402 0.3973917,-0.68784 v -1.32292 c 0,-0.29226 0.2369159,-0.52917 0.5291667,-0.52917 h 5.2916667 c 0.2920442,0 0.5288746,0.23662 0.5291667,0.52867 v 1.32493 c 1.177e-4,0.28323 0.1511644,0.5434 0.3963582,0.68521 0.2454027,0.14211 0.5479786,0.14251 0.79375,0 0.2459109,-0.14173 0.397429,-0.40399 0.397392,-0.68781 v -1.32291 c 0,-1.16901 -0.9476642,-2.11667 -2.1166669,-2.11667 z m -2.6458333,2.64843 c -1.1690028,-2.2e-4 -2.1166667,0.94765 -2.1166667,2.11666 v 2.64584 c 0,0.29226 -0.2369159,0.52916 -0.5291667,0.52916 -0.2922508,0 -0.5291667,-0.2369 -0.5291667,-0.52916 v -1.32292 c -1.177e-4,-0.28324 -0.1511644,-0.54599 -0.3963582,-0.68781 -0.2454027,-0.14211 -0.5479786,-0.14251 -0.79375002,0 -0.2459109,0.14174 -0.39742931,0.40399 -0.39739174,0.68781 v 1.32292 c 0,1.169 0.94766396,2.11719 2.11666666,2.11719 1.1690028,0 2.1166667,-0.94766 2.1166667,-2.11666 v -2.64584 c 0,-0.29226 0.2369159,-0.52916 0.5291667,-0.52916 0.2922508,0 0.5291666,0.2369 0.5291666,0.52916 v 2.64584 c 0,1.169 0.947664,2.11666 2.1166667,2.11666 1.1690027,0 2.1166669,-0.94766 2.1166669,-2.11666 v -1.32345 c -1.18e-4,-0.28324 -0.1511646,-0.54549 -0.3963585,-0.68731 -0.2454026,-0.14211 -0.5479785,-0.1425 -0.79375,0 -0.2459109,0.14174 -0.3974293,0.40402 -0.3973917,0.68784 v 1.32239 c 0,0.29226 -0.2369159,0.52969 -0.5291667,0.52969 -0.2922508,0 -0.5291667,-0.23691 -0.5291667,-0.52916 v -2.64584 c 0,-1.16901 -0.9476639,-2.11698 -2.1166666,-2.11719 z"
       style="stroke-width:0.26499999;stroke-miterlimit:4;stroke-dasharray:none" />
  </g>
</svg>
