<?xml version="1.0" encoding="UTF-8" standalone="no"?>
<svg
   xmlns:dc="http://purl.org/dc/elements/1.1/"
   xmlns:cc="http://creativecommons.org/ns#"
   xmlns:rdf="http://www.w3.org/1999/02/22-rdf-syntax-ns#"
   xmlns:svg="http://www.w3.org/2000/svg"
   xmlns="http://www.w3.org/2000/svg"
   id="svg8"
   version="1.1"
   viewBox="0 0 10.583333 10.583334"
   height="40"
   width="40">
  <defs
     id="defs2" />
  <metadata
     id="metadata5">
    <rdf:RDF>
      <cc:Work
         rdf:about="">
        <dc:format>image/svg+xml</dc:format>
        <dc:type
           rdf:resource="http://purl.org/dc/dcmitype/StillImage" />
        <dc:title></dc:title>
      </cc:Work>
    </rdf:RDF>
  </metadata>
  <g
     transform="translate(0,-286.41665)"
     id="layer1">
    <path
       id="path909"
       d="m 2.6460353,286.94631 c -1.1690027,0 -2.11666667,0.94766 -2.11666667,2.11667 v 2.64583 c 0,1.16901 0.94766397,2.11667 2.11666667,2.11667 1.1690028,0 2.1166668,-0.94766 2.1166668,-2.11667 0,-0.29226 0.2369158,-0.52917 0.5291666,-0.52917 0.2922508,0 0.5291667,0.23691 0.5291667,0.52917 v 2.64583 c 0,0.29226 -0.2369159,0.52917 -0.5291667,0.52917 H 1.3231184 c -0.2832463,1.3e-4 -0.54548435,0.15116 -0.68729626,0.39634 -0.14210956,0.24541 -0.14250352,0.54798 -0.001032,0.79375 0.1417275,0.24591 0.40397956,0.39744 0.68781326,0.39741 h 3.9692669 c 1.1690027,0 2.1166667,-0.94766 2.1166667,-2.11667 v -2.64583 c 0,-1.16901 -0.947664,-2.11667 -2.1166667,-2.11667 -1.1690027,0 -2.1166666,0.94766 -2.1166666,2.11667 0,0.29226 -0.236916,0.52917 -0.5291668,0.52917 -0.2922508,0 -0.5291667,-0.23691 -0.5291667,-0.52917 v -2.64583 c 0,-0.29226 0.2369159,-0.52917 0.5291667,-0.52917 h 5.2916668 c 0.2922508,0 0.5291666,0.23691 0.5291666,0.52917 -1.8e-6,0.26458 -1.8e-6,6.35 -1.8e-6,6.61458 1.177e-4,0.28324 0.1511662,0.54501 0.3963601,0.68683 0.2454026,0.14211 0.5479785,0.14251 0.79375,0 0.2459109,-0.14174 0.3974294,-0.40399 0.3973924,-0.68781 V 289.062 c 0,-1.16901 -0.9476646,-2.11667 -2.1166673,-2.11667 H 2.6460353 Z"
       style="stroke-width:0.13229166;stroke-miterlimit:4;stroke-dasharray:none" />
  </g>
</svg>
