<?xml version="1.0" encoding="UTF-8" standalone="no"?>
<svg
   xmlns:dc="http://purl.org/dc/elements/1.1/"
   xmlns:cc="http://creativecommons.org/ns#"
   xmlns:rdf="http://www.w3.org/1999/02/22-rdf-syntax-ns#"
   xmlns:svg="http://www.w3.org/2000/svg"
   xmlns="http://www.w3.org/2000/svg"
   id="svg8"
   version="1.1"
   viewBox="0 0 10.583333 10.583334"
   height="40"
   width="40">
  <defs
     id="defs2" />
  <metadata
     id="metadata5">
    <rdf:RDF>
      <cc:Work
         rdf:about="">
        <dc:format>image/svg+xml</dc:format>
        <dc:type
           rdf:resource="http://purl.org/dc/dcmitype/StillImage" />
        <dc:title></dc:title>
      </cc:Work>
    </rdf:RDF>
  </metadata>
  <g
     transform="translate(0,-286.41665)"
     id="layer1">
    <path
       id="circle976"
       d="m 1.3229167,286.94587 a 0.79375,0.79375 0 0 0 -0.79375004,0.79375 0.79375,0.79375 0 0 0 0.79375004,0.79375 0.79375,0.79375 0 0 0 0.79375,-0.79375 0.79375,0.79375 0 0 0 -0.79375,-0.79375 z m 2.6458333,0 a 0.79375,0.79375 0 0 0 -0.79375,0.79375 0.79375,0.79375 0 0 0 0.79375,0.79375 0.79375,0.79375 0 0 0 0.79375,-0.79375 0.79375,0.79375 0 0 0 -0.79375,-0.79375 z m 2.6458334,0 a 0.79375,0.79375 0 0 0 -0.79375,0.79375 0.79375,0.79375 0 0 0 0.79375,0.79375 0.79375,0.79375 0 0 0 0.79375,-0.79375 0.79375,0.79375 0 0 0 -0.79375,-0.79375 z m 2.6458333,0 a 0.79375,0.79375 0 0 0 -0.79375,0.79375 0.79375,0.79375 0 0 0 0.79375,0.79375 0.79375,0.79375 0 0 0 0.7937503,-0.79375 0.79375,0.79375 0 0 0 -0.7937503,-0.79375 z m -6.6145833,2.6448 v 0 c -1.1690028,0 -2.11666674,0.94766 -2.11666674,2.11667 v 3.96875 c 1.1774e-4,0.28326 0.1511644,0.54549 0.39635827,0.68731 0.24540267,0.1421 0.54797857,0.1425 0.79375007,0 0.2459109,-0.14174 0.3974293,-0.40402 0.3973917,-0.68784 v -3.96925 c 0,-0.29226 0.2369159,-0.52917 0.5291667,-0.52917 H 7.9375 c 0.2922508,0 0.5291667,0.23691 0.5291667,0.52917 v 3.97081 c 1.177e-4,0.28324 0.1511644,0.54496 0.3963583,0.68678 0.245587,0.14179 0.5481629,0.14179 0.79375,0 0.2459109,-0.14174 0.397429,-0.40399 0.397392,-0.68781 v -3.96875 c 0,-1.16901 -0.9476642,-2.11667 -2.116667,-2.11667 z m 2.6458333,2.64634 c -1.1688995,0 -2.1163746,0.9484 -2.1166667,2.11719 v 1.32292 c 1.178e-4,0.28324 0.1511644,0.54549 0.3963583,0.68731 0.245587,0.14179 0.548163,0.14179 0.79375,0 0.2459109,-0.14174 0.3974293,-0.40402 0.3973917,-0.68784 v -1.32292 c 0,-0.29225 0.2369159,-0.52916 0.5291667,-0.52916 0.2920442,0 0.5288746,0.23661 0.5291667,0.52866 v 1.32292 c 1.18e-4,0.28326 0.1511644,0.54599 0.3963582,0.68781 0.2455871,0.14179 0.548163,0.14179 0.79375,0 0.2459109,-0.14174 0.3974293,-0.40399 0.3973918,-0.68781 v -1.32292 c 0,-1.16901 -0.9477674,-2.11667 -2.1166667,-2.11616 z"
       style="stroke-width:0.26499999;stroke-miterlimit:4;stroke-dasharray:none" />
  </g>
</svg>
