<?xml version="1.0" encoding="UTF-8" standalone="no"?>
<svg
   xmlns:dc="http://purl.org/dc/elements/1.1/"
   xmlns:cc="http://creativecommons.org/ns#"
   xmlns:rdf="http://www.w3.org/1999/02/22-rdf-syntax-ns#"
   xmlns:svg="http://www.w3.org/2000/svg"
   xmlns="http://www.w3.org/2000/svg"
   id="svg8"
   version="1.1"
   viewBox="0 0 10.583333 10.583334"
   height="40"
   width="40">
  <defs
     id="defs2" />
  <metadata
     id="metadata5">
    <rdf:RDF>
      <cc:Work
         rdf:about="">
        <dc:format>image/svg+xml</dc:format>
        <dc:type
           rdf:resource="http://purl.org/dc/dcmitype/StillImage" />
        <dc:title></dc:title>
      </cc:Work>
    </rdf:RDF>
  </metadata>
  <g
     transform="translate(0,-286.41665)"
     id="layer1">
    <path
       id="circle1035"
       d="m 7.9375,286.94504 c -1.1690027,0 -2.1166666,0.94766 -2.1166666,2.11667 v 5.29166 c 0,0.29226 -0.2369159,0.52917 -0.5291667,0.52917 -0.2922508,0 -0.5291667,-0.23691 -0.5291667,-0.52917 v -5.29166 c 0,-1.16901 -0.9477671,-2.11635 -2.1166666,-2.11564 -1.1688993,0 -2.11637459,0.94787 -2.11666669,2.11667 v 1.32344 c 1.177e-4,0.28324 0.1511644,0.5455 0.3963583,0.68731 0.24540259,0.14211 0.54797849,0.14251 0.79374999,0 0.2459109,-0.14173 0.3974293,-0.40402 0.3973917,-0.68783 v -1.32292 c 0,-0.29226 0.2369159,-0.52917 0.5291667,-0.52917 0.2922508,0 0.5291666,0.23691 0.5291666,0.52917 v 5.29167 c 0,1.169 0.947664,2.11666 2.1166667,2.11666 1.1690027,0 2.1166667,-0.94766 2.1166667,-2.11666 v -5.29167 c 0,-0.29226 0.2369158,-0.52917 0.5291666,-0.52917 0.2920442,0 0.5288746,0.23662 0.5291667,0.52867 v 1.32394 c 1.177e-4,0.28324 0.1511644,0.54446 0.3963583,0.68628 0.2454026,0.14208 0.5479786,0.14248 0.7937496,0 0.245911,-0.14174 0.3974304,-0.40402 0.3973924,-0.68784 v -1.32291 c 0,-1.16901 -0.9476642,-2.11667 -2.116667,-2.11667 z m -6.6145833,5.29323 a 0.79375,0.79375 0 0 0 -0.79374999,0.79375 0.79375,0.79375 0 0 0 0.79374999,0.79375 0.79375,0.79375 0 0 0 0.79375,-0.79375 0.79375,0.79375 0 0 0 -0.79375,-0.79375 z m 7.9374999,0 a 0.79375,0.79375 0 0 0 -0.7937499,0.79375 0.79375,0.79375 0 0 0 0.7937499,0.79375 0.79375,0.79375 0 0 0 0.7937504,-0.79375 0.79375,0.79375 0 0 0 -0.7937504,-0.79375 z m -7.9374999,2.64583 a 0.79375,0.79375 0 0 0 -0.79374999,0.79375 0.79375,0.79375 0 0 0 0.79374999,0.79375 0.79375,0.79375 0 0 0 0.79375,-0.79375 0.79375,0.79375 0 0 0 -0.79375,-0.79375 z m 7.9374999,0 a 0.79375,0.79375 0 0 0 -0.7937499,0.79375 0.79375,0.79375 0 0 0 0.7937499,0.79375 0.79375,0.79375 0 0 0 0.7937504,-0.79375 0.79375,0.79375 0 0 0 -0.7937504,-0.79375 z"
       style="stroke-width:0.26499999;stroke-miterlimit:4;stroke-dasharray:none" />
  </g>
</svg>
