<?xml version="1.0" encoding="UTF-8" standalone="no"?>
<svg
   xmlns:dc="http://purl.org/dc/elements/1.1/"
   xmlns:cc="http://creativecommons.org/ns#"
   xmlns:rdf="http://www.w3.org/1999/02/22-rdf-syntax-ns#"
   xmlns:svg="http://www.w3.org/2000/svg"
   xmlns="http://www.w3.org/2000/svg"
   id="svg8"
   version="1.1"
   viewBox="0 0 10.583333 10.583334"
   height="40"
   width="40">
  <defs
     id="defs2" />
  <metadata
     id="metadata5">
    <rdf:RDF>
      <cc:Work
         rdf:about="">
        <dc:format>image/svg+xml</dc:format>
        <dc:type
           rdf:resource="http://purl.org/dc/dcmitype/StillImage" />
        <dc:title></dc:title>
      </cc:Work>
    </rdf:RDF>
  </metadata>
  <g
     transform="translate(0,-286.41665)"
     id="layer1">
    <path
       id="rect1097"
       d="m 1.3523723,286.94556 v 0 c -0.1457134,-0.004 -0.2896391,0.0328 -0.41599533,0.10541 -0.24591088,0.14174 -0.39742929,0.40399 -0.39739173,0.68781 v 7.93856 c 1.1775e-4,0.28324 0.1511644,0.54549 0.39635827,0.68731 0.24540259,0.1421 0.54797849,0.1425 0.79374999,0 0.2459109,-0.14174 0.3974293,-0.40402 0.3973917,-0.68784 v -7.9375 c -1.177e-4,-0.28324 -0.1511644,-0.54546 -0.3963583,-0.68728 -0.1150231,-0.0665 -0.2449115,-0.10316 -0.3777546,-0.10647 z m 7.9178629,0 v 0 c -0.1457129,-0.004 -0.2896394,0.0328 -0.4159954,0.10541 -0.2459109,0.14174 -0.3974295,0.40399 -0.3973917,0.68781 v 7.93856 c 1.169e-4,0.28324 0.1511644,0.54546 0.3963583,0.68731 0.2454031,0.14208 0.547979,0.14248 0.79375,0 0.2459111,-0.14177 0.3974286,-0.404 0.3973916,-0.68784 v -7.9375 c -1.18e-4,-0.28321 -0.1511651,-0.54546 -0.3963582,-0.68728 -0.1150228,-0.0665 -0.2449115,-0.10314 -0.3777546,-0.10647 z m -5.2725463,0 c -0.1455391,-0.004 -0.2892732,0.0328 -0.4154786,0.10541 -0.2459109,0.14174 -0.3974293,0.40399 -0.3973918,0.68781 v 2.64583 c 1.178e-4,0.28324 0.1511644,0.5455 0.3963583,0.68731 0.2454026,0.14211 0.5479785,0.14251 0.79375,0 0.2459109,-0.14174 0.3974293,-0.40402 0.3973917,-0.68783 v -2.64425 c -1.177e-4,-0.28324 -0.1511644,-0.54496 -0.3963582,-0.68678 -0.1151758,-0.0666 -0.2452524,-0.10324 -0.3782714,-0.10644 z m 2.6458333,0 c -0.145539,-0.004 -0.2892731,0.0328 -0.4154786,0.10541 -0.2459109,0.14174 -0.3974293,0.40399 -0.3973917,0.68781 v 2.64583 c 1.177e-4,0.28324 0.1511644,0.5455 0.3963582,0.68731 0.2454027,0.14211 0.5479786,0.14251 0.79375,0 0.2459109,-0.14174 0.3974293,-0.40402 0.3973918,-0.68783 v -2.64425 c -1.178e-4,-0.28324 -0.1511644,-0.54496 -0.3963583,-0.68678 -0.1151758,-0.0666 -0.2452523,-0.10324 -0.3782714,-0.10644 z m -2.6458333,5.29114 c -0.1455391,-0.004 -0.2892727,0.0328 -0.4154786,0.10541 -0.2459109,0.14173 -0.3974299,0.40399 -0.3973918,0.68781 -1e-6,0.52916 0,2.11667 0,2.64583 1.18e-4,0.28326 0.1511642,0.54549 0.3963583,0.68731 0.2454018,0.14211 0.547978,0.1425 0.79375,0 0.2459109,-0.14174 0.3974288,-0.40399 0.3973917,-0.68781 v -2.64533 c -1.169e-4,-0.28324 -0.1511641,-0.54494 -0.3963582,-0.68678 -0.115175,-0.0666 -0.2452524,-0.10324 -0.3782714,-0.10644 z m 2.6458333,0 c -0.145539,-0.004 -0.2892737,0.0328 -0.4154786,0.10541 -0.2459109,0.14173 -0.3974298,0.40399 -0.3973917,0.68781 v 2.64583 c 1.169e-4,0.28326 0.1511641,0.54549 0.3963582,0.68731 0.2454029,0.14211 0.5479791,0.1425 0.79375,0 0.2459109,-0.14174 0.3974288,-0.40399 0.3973918,-0.68781 v -2.64533 c -1.18e-4,-0.28324 -0.1511652,-0.54494 -0.3963583,-0.68678 -0.115176,-0.0666 -0.2452523,-0.10324 -0.3782714,-0.10644 z"
       style="stroke-width:0.26499999;stroke-miterlimit:4;stroke-dasharray:none" />
  </g>
</svg>
