<?xml version="1.0" encoding="UTF-8" standalone="no"?>
<svg
   xmlns:dc="http://purl.org/dc/elements/1.1/"
   xmlns:cc="http://creativecommons.org/ns#"
   xmlns:rdf="http://www.w3.org/1999/02/22-rdf-syntax-ns#"
   xmlns:svg="http://www.w3.org/2000/svg"
   xmlns="http://www.w3.org/2000/svg"
   id="svg8"
   version="1.1"
   viewBox="0 0 10.583333 10.583334"
   height="40"
   width="40">
  <defs
     id="defs2" />
  <metadata
     id="metadata5">
    <rdf:RDF>
      <cc:Work
         rdf:about="">
        <dc:format>image/svg+xml</dc:format>
        <dc:type
           rdf:resource="http://purl.org/dc/dcmitype/StillImage" />
        <dc:title></dc:title>
      </cc:Work>
    </rdf:RDF>
  </metadata>
  <g
     transform="translate(0,-286.41665)"
     id="layer1">
    <path
       id="path1163"
       d="m 1.3418276,286.9459 c -0.1455888,-0.003 -0.2893264,0.0332 -0.41547863,0.10594 -0.24591088,0.14174 -0.3974293,0.40399 -0.39739173,0.68781 v 3.96875 c 0,1.16901 0.94766396,2.11667 2.11666676,2.11667 1.1690027,0 2.1166666,-0.94766 2.1166666,-2.11667 v -2.64583 c 0,-0.29226 0.2369159,-0.52917 0.5291667,-0.52917 h 3.96875 c 0.2832462,-10e-5 0.5454846,-0.15115 0.6872965,-0.39634 0.1421092,-0.24541 0.1425052,-0.54798 0.00103,-0.79375 C 9.8068065,287.0974 9.5445542,286.94588 9.2607205,286.9459 H 5.2914573 c -1.1690027,0 -2.1166667,0.94766 -2.1166667,2.11667 v 2.64583 c 0,0.29226 -0.2369158,0.52917 -0.5291666,0.52917 -0.2922509,0 -0.5291668,-0.23691 -0.5291668,-0.52917 4.5e-6,-0.52916 0,-3.43958 0,-3.96875 -1.177e-4,-0.28323 -0.1511644,-0.54599 -0.3963583,-0.68781 -0.1152226,-0.0664 -0.2452962,-0.10287 -0.3782713,-0.10594 z m 5.2720296,2.64584 c -0.2832462,10e-5 -0.5449678,0.15115 -0.6867797,0.39634 -0.1421096,0.2454 -0.1425051,0.54798 -0.00103,0.79375 0.1417272,0.2459 0.4039796,0.39743 0.6878132,0.39741 h 2.6463466 c 0.2832462,-1.1e-4 0.5454846,-0.15116 0.6872965,-0.39635 0.1421092,-0.2454 0.1425052,-0.54798 0.00103,-0.79375 -0.1417273,-0.2459 -0.4039796,-0.39743 -0.6878133,-0.3974 z m 0,2.64583 c -0.2832459,10e-5 -0.5449678,0.15115 -0.6867797,0.39634 -0.142109,0.24541 -0.1425366,0.54798 -0.00103,0.79375 0.141727,0.24591 0.4039791,0.39743 0.6878132,0.39741 h 2.6463466 c 0.283246,-1.1e-4 0.5454846,-0.15116 0.6872965,-0.39635 0.1421102,-0.2454 0.1425372,-0.54798 0.00103,-0.79375 -0.1417278,-0.2459 -0.4039802,-0.39743 -0.6878133,-0.3974 z m -5.29115,2.64583 c -0.2832462,1.1e-4 -0.5449678,0.15116 -0.6867797,0.39635 -0.14210956,0.2454 -0.14250512,0.54798 -0.001032,0.79375 0.1417275,0.2459 0.4039796,0.39743 0.6878132,0.3974 h 7.9375002 c 0.2832462,-10e-5 0.5454846,-0.15115 0.6872965,-0.39634 0.1421096,-0.24541 0.1425046,-0.54798 0.00103,-0.79375 -0.1417272,-0.24591 -0.4039795,-0.39743 -0.6878132,-0.39741 z"
       style="stroke-width:0.13229166;stroke-miterlimit:4;stroke-dasharray:none" />
  </g>
</svg>
