<?xml version="1.0" encoding="UTF-8" standalone="no"?>
<svg
   xmlns:dc="http://purl.org/dc/elements/1.1/"
   xmlns:cc="http://creativecommons.org/ns#"
   xmlns:rdf="http://www.w3.org/1999/02/22-rdf-syntax-ns#"
   xmlns:svg="http://www.w3.org/2000/svg"
   xmlns="http://www.w3.org/2000/svg"
   id="svg8"
   version="1.1"
   viewBox="0 0 10.583333 10.583334"
   height="40"
   width="40">
  <defs
     id="defs2" />
  <metadata
     id="metadata5">
    <rdf:RDF>
      <cc:Work
         rdf:about="">
        <dc:format>image/svg+xml</dc:format>
        <dc:type
           rdf:resource="http://purl.org/dc/dcmitype/StillImage" />
        <dc:title></dc:title>
      </cc:Work>
    </rdf:RDF>
  </metadata>
  <g
     transform="translate(0,-286.41665)"
     id="layer1">
    <path
       id="circle1227"
       d="m 1.3227064,286.94634 c -0.2832462,10e-5 -0.54496783,0.15115 -0.68677973,0.39634 -0.14210956,0.2454 -0.14250511,0.54798 -0.001032,0.79375 0.1417275,0.24591 0.40397963,0.39743 0.68781323,0.39741 h 7.9375002 c 0.2832462,-1.1e-4 0.5454846,-0.15116 0.6872965,-0.39635 0.1421094,-0.2454 0.1425054,-0.54798 0.00103,-0.79375 -0.1417272,-0.2459 -0.4039795,-0.39743 -0.6878132,-0.3974 -2.6460045,-3e-5 -5.2920122,5e-5 -7.9380168,0 z m 7.9375001,2.6448 H 7.9372898 c -1.168796,0 -2.1163745,0.94734 -2.1166666,2.11613 v 1.32448 c 1.177e-4,0.28324 0.1511644,0.54496 0.3963582,0.68678 0.2454027,0.14211 0.5479786,0.14251 0.79375,0 0.2459109,-0.14174 0.3974293,-0.40399 0.3973918,-0.68781 v -1.32292 c -3e-7,-0.29204 0.236601,-0.52887 0.5286499,-0.52916 h 1.3234334 c 0.2832462,-1.1e-4 0.5449678,-0.15119 0.6867798,-0.39638 0.1421097,-0.2454 0.1425047,-0.54797 0.00103,-0.79375 -0.1417275,-0.2459 -0.4039796,-0.3974 -0.6878132,-0.39737 z m -7.9375001,0 c -0.2832301,1.3e-4 -0.54495989,0.15115 -0.68677973,0.39634 -0.14211009,0.2454 -0.14250009,0.54801 0,0.79375 0.14173994,0.24593 0.40399333,0.39746 0.68781323,0.39741 h 1.3229167 c 0.29205,0 0.5288667,0.23659 0.5291667,0.52863 v 1.32448 c 1e-4,0.28327 0.1511684,0.54496 0.3963583,0.68678 0.2453999,0.14211 0.5479801,0.14253 0.79375,0 0.2459,-0.14174 0.3974219,-0.40399 0.3973917,-0.68781 l -0.00103,-1.32188 c 0,-1.1688 -0.9473499,-2.11638 -2.1161499,-2.11667 z m 0,2.64583 a 0.79375,0.79375 0 0 0 -0.79374998,0.79375 0.79375,0.79375 0 0 0 0.79374998,0.79375 0.79375,0.79375 0 0 0 0.7937501,-0.79375 0.79375,0.79375 0 0 0 -0.7937501,-0.79375 z m 7.9375001,0 a 0.79375,0.79375 0 0 0 -0.79375,0.79375 0.79375,0.79375 0 0 0 0.79375,0.79375 0.79375,0.79375 0 0 0 0.7937495,-0.79375 0.79375,0.79375 0 0 0 -0.7937495,-0.79375 z m -7.9375001,2.64583 c -0.283246,1.1e-4 -0.54496889,0.15116 -0.68677973,0.39635 -0.14211009,0.2454 -0.14253766,0.548 -0.001032,0.79375 0.14172698,0.24593 0.40397933,0.39743 0.68781323,0.3974 h 7.9375002 c 0.283246,-1e-4 0.5454846,-0.15115 0.6872965,-0.39634 0.1421104,-0.2454 0.1425374,-0.54801 0.00103,-0.79375 -0.1417277,-0.24591 -0.4039801,-0.39743 -0.6878132,-0.39741 -2.646005,-2e-5 -5.2920117,6e-5 -7.9380168,0 z"
       style="stroke-width:0.26499999;stroke-miterlimit:4;stroke-dasharray:none" />
  </g>
</svg>
