<?xml version="1.0" encoding="UTF-8" standalone="no"?>
<svg
   xmlns:dc="http://purl.org/dc/elements/1.1/"
   xmlns:cc="http://creativecommons.org/ns#"
   xmlns:rdf="http://www.w3.org/1999/02/22-rdf-syntax-ns#"
   xmlns:svg="http://www.w3.org/2000/svg"
   xmlns="http://www.w3.org/2000/svg"
   id="svg8"
   version="1.1"
   viewBox="0 0 10.583333 10.583334"
   height="40"
   width="40">
  <defs
     id="defs2" />
  <metadata
     id="metadata5">
    <rdf:RDF>
      <cc:Work
         rdf:about="">
        <dc:format>image/svg+xml</dc:format>
        <dc:type
           rdf:resource="http://purl.org/dc/dcmitype/StillImage" />
        <dc:title></dc:title>
      </cc:Work>
    </rdf:RDF>
  </metadata>
  <g
     transform="translate(0,-286.41665)"
     id="layer1">
    <path
       id="path1280"
       d="m 9.261137,286.9453 c -0.137041,-5e-5 -0.27399,0.0357 -0.396875,0.10697 -0.245911,0.14174 -0.39743,0.40399 -0.397392,0.68781 v 6.61511 c 0,0.29226 -0.236916,0.52917 -0.529167,0.52917 H 2.6460365 c -0.2922508,0 -0.5291667,-0.23691 -0.5291667,-0.52917 0,-0.29225 0.2369159,-0.52916 0.5291667,-0.52916 h 2.6458334 c 1.1690031,0 2.1166671,-0.94766 2.1166671,-2.11667 v -3.96928 c -1.18e-4,-0.28323 -0.151165,-0.54549 -0.396359,-0.68731 -0.115023,-0.0665 -0.244911,-0.10313 -0.377754,-0.10644 -0.145714,-0.004 -0.2896394,0.0328 -0.4159957,0.10541 -0.2459109,0.14174 -0.3974293,0.40399 -0.3973917,0.68781 v 3.96928 c 0,0.29226 -0.2369159,0.52917 -0.5291667,0.52917 H 2.6460365 c -1.1690027,0 -2.11666673,0.94766 -2.11666673,2.11667 0,1.169 0.94766403,2.11666 2.11666673,2.11666 H 7.937703 c 1.169003,0 2.116667,-0.94766 2.116667,-2.11666 v -6.61459 c -1.18e-4,-0.28323 -0.151165,-0.54599 -0.396358,-0.68781 -0.122702,-0.0711 -0.259835,-0.10692 -0.396875,-0.10697 z m -7.9380172,0.001 c -0.2832462,1.1e-4 -0.54548463,0.15116 -0.68729653,0.39635 -0.1421095,0.2454 -0.1425051,0.54798 -0.00103,0.79375 0.1417273,0.2459 0.40397963,0.39743 0.68781333,0.3974 h 1.3234319 c 0.2922508,0 0.5291668,0.23691 0.5291668,0.52917 0,0.29226 -0.236916,0.52917 -0.5291668,0.52917 H 1.3231198 c -0.2832462,1e-4 -0.54548463,0.15115 -0.68729653,0.39634 -0.1421095,0.2454 -0.1425051,0.54798 -0.00103,0.79375 0.1417273,0.2459 0.40397963,0.39743 0.68781333,0.39741 h 1.3234319 c 1.1690028,0 2.1166668,-0.94766 2.1166668,-2.11667 0,-1.16901 -0.947664,-2.11667 -2.1166668,-2.11667 z"
       style="stroke-width:0.13229166;stroke-miterlimit:4;stroke-dasharray:none" />
  </g>
</svg>
