<?xml version="1.0" encoding="UTF-8" standalone="no"?>
<svg
   xmlns:dc="http://purl.org/dc/elements/1.1/"
   xmlns:cc="http://creativecommons.org/ns#"
   xmlns:rdf="http://www.w3.org/1999/02/22-rdf-syntax-ns#"
   xmlns:svg="http://www.w3.org/2000/svg"
   xmlns="http://www.w3.org/2000/svg"
   id="svg8"
   version="1.1"
   viewBox="0 0 10.583333 10.583334"
   height="40"
   width="40">
  <defs
     id="defs2" />
  <metadata
     id="metadata5">
    <rdf:RDF>
      <cc:Work
         rdf:about="">
        <dc:format>image/svg+xml</dc:format>
        <dc:type
           rdf:resource="http://purl.org/dc/dcmitype/StillImage" />
        <dc:title></dc:title>
      </cc:Work>
    </rdf:RDF>
  </metadata>
  <g
     transform="translate(0,-286.41665)"
     id="layer1">
    <path
       id="circle1347"
       d="m 9.2609337,286.94467 c -0.13704,-3e-5 -0.273989,0.0357 -0.396875,0.10697 -0.245911,0.14174 -0.397429,0.40399 -0.397392,0.68781 0,0.26517 0.01734,0.87408 0,1.32345 0,0.29226 -0.236915,0.52813 -0.529166,0.52813 -1.169003,0 -2.116667,0.94766 -2.116667,2.11667 v 2.64583 c 0,0.29226 -0.236916,0.52917 -0.529167,0.52917 -0.29225,0 -0.529166,-0.23691 -0.529166,-0.52917 v -2.64583 c 0,-1.16901 -0.947664,-2.11667 -2.116667,-2.11667 -0.292251,0 -0.529167,-0.23691 -0.529167,-0.52916 v -1.32292 c -1.17e-4,-0.28324 -0.151164,-0.54549 -0.396358,-0.68731 -0.115023,-0.0665 -0.244911,-0.10313 -0.377754,-0.10644 v 0 c -0.145714,-0.004 -0.2896396,0.0328 -0.41599589,0.10541 -0.2459109,0.14174 -0.3974293,0.40399 -0.3973917,0.68781 v 1.32448 c 0,1.16901 0.94766359,2.11614 2.11666659,2.11614 0.292251,0 0.529167,0.2369 0.529167,0.52916 v 2.64584 c 0,1.169 0.947664,2.11666 2.116666,2.11666 1.169003,0 2.116667,-0.94766 2.116667,-2.11666 v -2.64584 c 0,-0.29226 0.236916,-0.52916 0.529167,-0.52916 1.169003,0 2.1166663,-0.94766 2.1166663,-2.11667 v -1.32239 c -1.17e-4,-0.28324 -0.1511643,-0.54652 -0.3963583,-0.68834 -0.122701,-0.071 -0.259834,-0.10692 -0.396875,-0.10697 z m -5.292183,0.002 a 0.79375,0.79375 0 0 0 -0.79375,0.79375 0.79375,0.79375 0 0 0 0.79375,0.79375 0.79375,0.79375 0 0 0 0.79375,-0.79375 0.79375,0.79375 0 0 0 -0.79375,-0.79375 z m 2.645833,0 a 0.79375,0.79375 0 0 0 -0.79375,0.79375 0.79375,0.79375 0 0 0 0.79375,0.79375 0.79375,0.79375 0 0 0 0.79375,-0.79375 0.79375,0.79375 0 0 0 -0.79375,-0.79375 z m -5.272546,5.2922 c -0.145539,-0.004 -0.2892729,0.0328 -0.41547889,0.10541 -0.2459109,0.14173 -0.3974298,0.40399 -0.3973917,0.68781 -1.1e-6,0.26458 0,2.38125 0,2.64583 1.18e-4,0.2828 0.1511641,0.54503 0.3963583,0.68687 0.24540329,0.14211 0.54797829,0.14248 0.79375029,0 0.245911,-0.14176 0.397428,-0.40399 0.397391,-0.68784 v -2.6453 c -1.17e-4,-0.28324 -0.151164,-0.54496 -0.396358,-0.68678 -0.115175,-0.0666 -0.245252,-0.10327 -0.378271,-0.10644 z m 7.9375,0 c -0.145539,-0.004 -0.289273,0.0328 -0.415479,0.10541 -0.245911,0.14173 -0.397429,0.40399 -0.397392,0.68781 v 2.64583 c 1.18e-4,0.28324 0.151165,0.54549 0.396359,0.68731 0.245402,0.14211 0.547978,0.1425 0.79375,0 0.245911,-0.14174 0.3974293,-0.40402 0.3973913,-0.68784 v -2.6453 c -1.17e-4,-0.28324 -0.1511643,-0.54496 -0.3963583,-0.68678 -0.115176,-0.0666 -0.245252,-0.10324 -0.378271,-0.10644 z"
       style="stroke-width:0.26499999;stroke-miterlimit:4;stroke-dasharray:none" />
  </g>
</svg>
