<?xml version="1.0" encoding="UTF-8" standalone="no"?>
<svg
   xmlns:dc="http://purl.org/dc/elements/1.1/"
   xmlns:cc="http://creativecommons.org/ns#"
   xmlns:rdf="http://www.w3.org/1999/02/22-rdf-syntax-ns#"
   xmlns:svg="http://www.w3.org/2000/svg"
   xmlns="http://www.w3.org/2000/svg"
   id="svg8"
   version="1.1"
   viewBox="0 0 10.583333 10.583334"
   height="40"
   width="40">
  <defs
     id="defs2" />
  <metadata
     id="metadata5">
    <rdf:RDF>
      <cc:Work
         rdf:about="">
        <dc:format>image/svg+xml</dc:format>
        <dc:type
           rdf:resource="http://purl.org/dc/dcmitype/StillImage" />
        <dc:title></dc:title>
      </cc:Work>
    </rdf:RDF>
  </metadata>
  <g
     transform="translate(0,-286.41665)"
     id="layer1">
    <path
       id="path1408"
       d="m 9.2609335,286.9453 c -0.137041,-5e-5 -0.273989,0.0357 -0.396875,0.10697 -0.2459109,0.14174 -0.3974293,0.40399 -0.3973917,0.68781 v 6.61511 c 0,0.29226 -0.2369159,0.52917 -0.5291667,0.52917 H 2.6458335 c -0.2922508,0 -0.5291667,-0.23691 -0.5291667,-0.52917 v -6.61511 c -1.177e-4,-0.28323 -0.1511644,-0.54549 -0.3963583,-0.68731 -0.1150231,-0.0665 -0.2449115,-0.10313 -0.3777546,-0.10644 -0.1457134,-0.004 -0.2896391,0.0328 -0.41599538,0.10541 -0.2459108,0.14174 -0.3974293,0.40399 -0.3973917,0.68781 v 6.61512 c 0,1.169 0.94766398,2.11666 2.11666668,2.11666 h 5.2916666 c 1.1690024,0 2.1166669,-0.94766 2.1166669,-2.11666 v -6.61459 c -1.17e-4,-0.28323 -0.1511645,-0.54599 -0.3963585,-0.68781 -0.122701,-0.0711 -0.259834,-0.10692 -0.396875,-0.10697 z m -5.2921834,0.001 c -0.2832462,1.1e-4 -0.5449678,0.15116 -0.6867797,0.39635 -0.1421096,0.2454 -0.1425051,0.54798 -0.00103,0.79375 0.1417275,0.2459 0.4039796,0.39743 0.6878132,0.3974 H 6.614587 c 0.2832462,-10e-5 0.5449678,-0.15115 0.6867797,-0.39634 0.1421096,-0.2454 0.1425051,-0.54798 0.00103,-0.79375 -0.1417275,-0.24591 -0.4039796,-0.39743 -0.6878132,-0.39741 z m 0,2.64584 c -0.283247,1e-4 -0.5449678,0.15115 -0.6867797,0.39634 -0.1421101,0.2454 -0.1425377,0.54798 -0.00103,0.79375 0.141727,0.2459 0.4039801,0.39743 0.6878132,0.39741 H 6.614587 c 0.2832459,-1.1e-4 0.5449678,-0.15116 0.6867797,-0.39635 0.142109,-0.2454 0.1425366,-0.54798 0.00103,-0.79375 -0.141727,-0.2459 -0.4039793,-0.39743 -0.6878132,-0.3974 z m 0,2.64583 c -0.283247,10e-5 -0.5449678,0.15115 -0.6867797,0.39634 -0.1421101,0.24541 -0.1425377,0.54798 -0.00103,0.79375 0.141727,0.24591 0.4039801,0.39743 0.6878132,0.39741 H 6.614587 c 0.2832459,-1.1e-4 0.5449678,-0.15116 0.6867797,-0.39635 0.142109,-0.2454 0.1425366,-0.54798 0.00103,-0.79375 -0.141727,-0.2459 -0.4039793,-0.39743 -0.6878132,-0.3974 z"
       style="stroke-width:0.26499999;stroke-miterlimit:4;stroke-dasharray:none" />
  </g>
</svg>
