<?xml version="1.0" encoding="UTF-8" standalone="no"?>
<svg
   xmlns:dc="http://purl.org/dc/elements/1.1/"
   xmlns:cc="http://creativecommons.org/ns#"
   xmlns:rdf="http://www.w3.org/1999/02/22-rdf-syntax-ns#"
   xmlns:svg="http://www.w3.org/2000/svg"
   xmlns="http://www.w3.org/2000/svg"
   id="svg8"
   version="1.1"
   viewBox="0 0 10.583333 10.583334"
   height="40"
   width="40">
  <defs
     id="defs2" />
  <metadata
     id="metadata5">
    <rdf:RDF>
      <cc:Work
         rdf:about="">
        <dc:format>image/svg+xml</dc:format>
        <dc:type
           rdf:resource="http://purl.org/dc/dcmitype/StillImage" />
        <dc:title></dc:title>
      </cc:Work>
    </rdf:RDF>
  </metadata>
  <g
     transform="translate(0,-286.41665)"
     id="layer1">
    <path
       id="path1473"
       d="m 2.6456153,286.94582 c -1.168899,-5e-5 -2.11637498,0.94734 -2.11666698,2.11614 v 1.32344 c 1.18e-4,0.28326 0.151165,0.546 0.396359,0.68781 0.24558698,0.14179 0.54816198,0.14179 0.79374998,0 0.24591,-0.14174 0.397429,-0.40399 0.397391,-0.68781 v -1.32292 c 0,-0.29225 0.236916,-0.52916 0.529167,-0.52916 0.292251,0 0.5291671,0.23691 0.5291671,0.52916 0,1.16901 0.9476629,2.11667 2.1166659,2.11667 1.169003,0 2.1166672,-0.94766 2.1166672,-2.11667 0,-0.29225 0.2369158,-0.52916 0.5291659,-0.52916 0.292251,0 0.5291669,0.23691 0.5291669,0.52916 v 1.32292 c 1.18e-4,0.28324 0.1511652,0.546 0.3963578,0.68781 0.245587,0.14179 0.548163,0.14179 0.79375,0 0.245911,-0.14174 0.3974299,-0.40399 0.3973919,-0.68781 v -1.32292 c 0,-1.169 -0.9476639,-2.11666 -2.1166666,-2.11666 -1.169002,0 -2.1166662,0.94766 -2.1166662,2.11666 0,0.29226 -0.2369158,0.52917 -0.5291669,0.52917 -0.2922511,0 -0.5291659,-0.23691 -0.5291659,-0.52917 0,-1.169 -0.9477682,-2.11664 -2.1166671,-2.11666 z m -1.322917,5.29166 c -0.283246,1.1e-4 -0.54496798,0.15116 -0.68677898,0.39635 -0.14211,0.2454 -0.142506,0.54798 -0.001,0.79375 0.141728,0.2459 0.40397998,0.39743 0.68781298,0.3974 h 1.3229169 c 0.292251,0 0.5291671,0.23691 0.5291671,0.52917 0,1.16901 0.9476631,2.11667 2.1166661,2.11667 1.169003,0 2.116667,-0.94766 2.116667,-2.11667 0,-0.29226 0.2369161,-0.52917 0.5291661,-0.52917 h 1.3229166 c 0.283246,-10e-5 0.545485,-0.15115 0.687297,-0.39634 0.1421089,-0.2454 0.1425049,-0.54798 10e-4,-0.79375 -0.141727,-0.2459 -0.403979,-0.39743 -0.687813,-0.39741 H 7.937288 c -1.1690022,0 -2.1166662,0.94766 -2.1166662,2.11667 0,0.29226 -0.2369158,0.52917 -0.5291669,0.52917 -0.2922511,0 -0.5291661,-0.23691 -0.5291661,-0.52917 0,-1.1688 -0.9473499,-2.11637 -2.1161501,-2.11667 z m 0,2.64584 a 0.79375,0.79375 0 0 0 -0.79374998,0.79375 0.79375,0.79375 0 0 0 0.79374998,0.79375 0.79375,0.79375 0 0 0 0.79375,-0.79375 0.79375,0.79375 0 0 0 -0.79375,-0.79375 z m 7.9374998,0 a 0.79375,0.79375 0 0 0 -0.7937498,0.79375 0.79375,0.79375 0 0 0 0.7937498,0.79375 0.79375,0.79375 0 0 0 0.7937499,-0.79375 0.79375,0.79375 0 0 0 -0.7937499,-0.79375 z"
       style="stroke-width:0.26499999;stroke-miterlimit:4;stroke-dasharray:none" />
  </g>
</svg>
