<?xml version="1.0" encoding="UTF-8" standalone="no"?>
<svg
   xmlns:dc="http://purl.org/dc/elements/1.1/"
   xmlns:cc="http://creativecommons.org/ns#"
   xmlns:rdf="http://www.w3.org/1999/02/22-rdf-syntax-ns#"
   xmlns:svg="http://www.w3.org/2000/svg"
   xmlns="http://www.w3.org/2000/svg"
   id="svg8"
   version="1.1"
   viewBox="0 0 10.583333 10.583334"
   height="40"
   width="40">
  <defs
     id="defs2" />
  <metadata
     id="metadata5">
    <rdf:RDF>
      <cc:Work
         rdf:about="">
        <dc:format>image/svg+xml</dc:format>
        <dc:type
           rdf:resource="http://purl.org/dc/dcmitype/StillImage" />
        <dc:title></dc:title>
      </cc:Work>
    </rdf:RDF>
  </metadata>
  <g
     transform="translate(0,-286.41665)"
     id="layer1">
    <path
       id="path1548"
       d="m 2.6458082,286.94582 c -1.169003,0 -2.11666703,0.94766 -2.11666703,2.11667 v 5.29166 c 0,1.1688 0.94786603,2.11638 2.11666703,2.11667 h 1.3229171 c 0.283246,-1e-4 0.5449668,-0.15116 0.686779,-0.39634 0.1421101,-0.24541 0.1425048,-0.54798 0.00101,-0.79375 -0.1417382,-0.24591 -0.40399,-0.39744 -0.6878231,-0.39741 h -1.322917 c -0.292251,0 -0.529167,-0.23691 -0.529167,-0.52917 v -5.29166 c 0,-0.29205 0.237118,-0.52888 0.529167,-0.52917 h 1.322917 c 0.283246,-1e-4 0.544967,-0.15116 0.686779,-0.39634 0.14211,-0.24541 0.1425051,-0.54798 0.00101,-0.79375 -0.1417334,-0.24591 -0.4039854,-0.39744 -0.6878183,-0.39741 z m 3.9687502,0 c -0.283247,1.1e-4 -0.5449681,0.15116 -0.68678,0.39635 -0.1421101,0.2454 -0.1425382,0.548 -0.00101,0.79375 0.1417269,0.2459 0.403979,0.39743 0.6878129,0.3974 h 1.3229161 c 0.2922509,0 0.529167,0.23691 0.529167,0.52917 v 5.29166 c 10e-7,0.29205 -0.237118,0.52888 -0.529167,0.52917 H 6.6145859 c -0.283246,1.1e-4 -0.5449678,0.15116 -0.68678,0.39635 -0.1421098,0.2454 -0.1425379,0.548 -0.00101,0.79375 0.141727,0.2459 0.403979,0.39743 0.6878129,0.3974 h 1.3229159 c 1.1690035,0 2.1166673,-0.94766 2.1166673,-2.11667 v -5.29166 c 10e-6,-1.1688 -0.9478548,-2.11638 -2.1166565,-2.11667 z m -2.6463501,2.64583 c -0.283246,1.1e-4 -0.5449681,0.15116 -0.68678,0.39635 -0.1421091,0.2454 -0.1425051,0.54798 -0.00101,0.79375 0.141727,0.2459 0.4039791,0.39743 0.6878129,0.3974 h 2.6463501 c 0.283246,-10e-5 0.5444511,-0.15115 0.686263,-0.39634 0.1421091,-0.2454 0.1425051,-0.54798 0.00101,-0.79375 -0.1417269,-0.24591 -0.403979,-0.39743 -0.6878132,-0.39741 -0.8819427,0 -1.7638897,3e-5 -2.6458328,0 z m 0,2.64584 c -0.283246,1e-4 -0.5449681,0.15115 -0.68678,0.39634 -0.1421091,0.2454 -0.1425371,0.54798 -0.00101,0.79375 0.141727,0.24591 0.4039801,0.39743 0.6878129,0.39741 h 2.6463501 c 0.283246,-1.1e-4 0.5444511,-0.15116 0.686263,-0.39635 0.1421101,-0.2454 0.142538,-0.54798 0.00101,-0.79375 -0.141728,-0.2459 -0.4039801,-0.39743 -0.6878132,-0.3974 -0.8819438,0 -1.7638897,2e-5 -2.6458328,0 z"
       style="stroke-width:0.26499999;stroke-miterlimit:4;stroke-dasharray:none" />
  </g>
</svg>
