<?xml version="1.0" encoding="UTF-8" standalone="no"?>
<svg
   xmlns:dc="http://purl.org/dc/elements/1.1/"
   xmlns:cc="http://creativecommons.org/ns#"
   xmlns:rdf="http://www.w3.org/1999/02/22-rdf-syntax-ns#"
   xmlns:svg="http://www.w3.org/2000/svg"
   xmlns="http://www.w3.org/2000/svg"
   id="svg8"
   version="1.1"
   viewBox="0 0 10.583333 10.583334"
   height="40"
   width="40">
  <defs
     id="defs2" />
  <metadata
     id="metadata5">
    <rdf:RDF>
      <cc:Work
         rdf:about="">
        <dc:format>image/svg+xml</dc:format>
        <dc:type
           rdf:resource="http://purl.org/dc/dcmitype/StillImage" />
        <dc:title></dc:title>
      </cc:Work>
    </rdf:RDF>
  </metadata>
  <g
     transform="translate(0,-286.41665)"
     id="layer1">
    <path
       id="path1591"
       d="m 9.2607154,286.94532 c -0.137041,-5e-5 -0.273989,0.0357 -0.396875,0.10697 -0.245911,0.14174 -0.397429,0.404 -0.397392,0.68781 v 3.96928 c 0,0.29226 -0.236916,0.52917 -0.529167,0.52917 -0.29225,0 -0.529166,-0.23691 -0.529166,-0.52917 0,-1.16901 -0.947664,-2.11666 -2.116667,-2.11666 -1.169003,0 -2.116666,0.94765 -2.116666,2.11666 0,0.29226 -0.236916,0.52917 -0.529167,0.52917 -0.292251,0 -0.529167,-0.23691 -0.529167,-0.52917 v -3.96928 c -1.17e-4,-0.28323 -0.151164,-0.54549 -0.3963583,-0.6873 -0.115023,-0.0666 -0.244912,-0.10314 -0.377755,-0.10645 -0.145713,-0.004 -0.289639,0.0328 -0.41599493,0.10541 -0.2459111,0.14174 -0.3974291,0.404 -0.3973921,0.68782 v 3.96927 c 0,1.16901 0.94766413,2.11667 2.11666733,2.11667 1.169003,0 2.116667,-0.94766 2.116667,-2.11667 0,-0.29225 0.236915,-0.52916 0.529166,-0.52916 0.292251,0 0.529167,0.23691 0.529167,0.52916 0,1.16901 0.947664,2.11667 2.116666,2.11667 1.169003,0 2.1166666,-0.94766 2.1166666,-2.11667 v -3.96875 c -1.18e-4,-0.28323 -0.1511636,-0.54599 -0.3963576,-0.68781 -0.122701,-0.0711 -0.259834,-0.10691 -0.396875,-0.10697 z m -5.292183,0.001 c -0.283247,1.1e-4 -0.544968,0.15116 -0.68678,0.39635 -0.14211,0.2454 -0.142505,0.54798 -10e-4,0.79375 0.141728,0.2459 0.40398,0.39743 0.687814,0.3974 h 2.645833 c 0.283246,-10e-5 0.545484,-0.15115 0.687296,-0.39634 0.14211,-0.2454 0.142505,-0.54798 0.001,-0.79375 -0.141727,-0.24591 -0.40398,-0.39743 -0.687813,-0.39741 z m -2.6458342,7.9375 c -0.283246,1.1e-4 -0.54496813,0.15116 -0.68677913,0.39635 -0.14211,0.2454 -0.142506,0.54798 -0.001,0.79375 0.141728,0.2459 0.40398003,0.39743 0.68781313,0.3974 h 7.9375002 c 0.283246,-10e-5 0.545485,-0.15115 0.687297,-0.39634 0.1421086,-0.2454 0.1425046,-0.54798 10e-4,-0.79375 -0.141727,-0.24591 -0.403979,-0.39743 -0.687813,-0.39741 z"
       style="stroke-width:0.13229166;stroke-miterlimit:4;stroke-dasharray:none" />
  </g>
</svg>
