<?xml version="1.0" encoding="UTF-8" standalone="no"?>
<svg
   xmlns:dc="http://purl.org/dc/elements/1.1/"
   xmlns:cc="http://creativecommons.org/ns#"
   xmlns:rdf="http://www.w3.org/1999/02/22-rdf-syntax-ns#"
   xmlns:svg="http://www.w3.org/2000/svg"
   xmlns="http://www.w3.org/2000/svg"
   id="svg8"
   version="1.1"
   viewBox="0 0 10.583333 10.583334"
   height="40"
   width="40">
  <defs
     id="defs2" />
  <metadata
     id="metadata5">
    <rdf:RDF>
      <cc:Work
         rdf:about="">
        <dc:format>image/svg+xml</dc:format>
        <dc:type
           rdf:resource="http://purl.org/dc/dcmitype/StillImage" />
        <dc:title></dc:title>
      </cc:Work>
    </rdf:RDF>
  </metadata>
  <g
     transform="translate(0,-286.41665)"
     id="layer1">
    <path
       id="path1657"
       d="m 9.2797386,286.94564 c -0.145589,-0.003 -0.289327,0.0332 -0.415479,0.10594 -0.2459106,0.14173 -0.3974285,0.40399 -0.3973915,0.68781 v 5.29219 c 1.18e-4,0.28324 0.151165,0.546 0.3963575,0.68782 0.245588,0.14179 0.548163,0.14179 0.79375,0 0.245911,-0.14174 0.3974304,-0.404 0.3973924,-0.68782 v -5.29166 c -1.18e-4,-0.28324 -0.1511644,-0.54653 -0.3963584,-0.68834 -0.115223,-0.0664 -0.245296,-0.10287 -0.378271,-0.10594 z m -6.6337036,5.3e-4 c -1.169003,0 -2.116667,0.94766 -2.116667,2.11666 v 2.64584 c 0,1.16901 0.947664,2.11666 2.116667,2.11666 h 3.9687501 c 0.2832459,-1e-4 0.545484,-0.15115 0.6872959,-0.39634 0.1421101,-0.2454 0.1425051,-0.54798 0.00101,-0.79375 -0.1417269,-0.24591 -0.4039801,-0.39743 -0.6878132,-0.39741 H 2.646001 c -0.292251,0 -0.529167,-0.2369 -0.529167,-0.52916 v -2.64584 c 0,-0.29225 0.236916,-0.52916 0.529167,-0.52916 h 3.9687499 c 0.283246,-1.1e-4 0.5454841,-0.15116 0.6872962,-0.39635 0.1421099,-0.2454 0.1425049,-0.54798 0.00101,-0.79375 -0.141727,-0.2459 -0.4039799,-0.39743 -0.687813,-0.3974 -1.323086,-3e-5 -2.646181,2e-5 -3.9692671,0 z m 1.322917,2.64583 a 0.79375,0.79375 0 0 0 -0.79375,0.79375 0.79375,0.79375 0 0 0 0.79375,0.79375 0.79375,0.79375 0 0 0 0.79375,-0.79375 0.79375,0.79375 0 0 0 -0.79375,-0.79375 z m 2.6458331,0 a 0.79375,0.79375 0 0 0 -0.79375,0.79375 0.79375,0.79375 0 0 0 0.79375,0.79375 0.79375,0.79375 0 0 0 0.79375,-0.79375 0.79375,0.79375 0 0 0 -0.79375,-0.79375 z m -5.2921831,5.29167 c -0.283247,1e-4 -0.544968,0.15115 -0.68678,0.39634 -0.14211,0.2454 -0.142505,0.54798 -0.001,0.79375 0.141728,0.24591 0.4039799,0.39743 0.687814,0.39741 h 7.9380156 c 0.283246,-1.1e-4 0.544968,-0.15116 0.68678,-0.39635 0.1421094,-0.2454 0.1425054,-0.54798 10e-4,-0.79375 -0.141727,-0.2459 -0.403979,-0.39743 -0.687813,-0.3974 z"
       style="stroke-width:0.26499999;stroke-miterlimit:4;stroke-dasharray:none" />
  </g>
</svg>
