<?xml version="1.0" encoding="UTF-8" standalone="no"?>
<svg
   xmlns:dc="http://purl.org/dc/elements/1.1/"
   xmlns:cc="http://creativecommons.org/ns#"
   xmlns:rdf="http://www.w3.org/1999/02/22-rdf-syntax-ns#"
   xmlns:svg="http://www.w3.org/2000/svg"
   xmlns="http://www.w3.org/2000/svg"
   id="svg8"
   version="1.1"
   viewBox="0 0 10.583333 10.583334"
   height="40"
   width="40">
  <defs
     id="defs2" />
  <metadata
     id="metadata5">
    <rdf:RDF>
      <cc:Work
         rdf:about="">
        <dc:format>image/svg+xml</dc:format>
        <dc:type
           rdf:resource="http://purl.org/dc/dcmitype/StillImage" />
        <dc:title></dc:title>
      </cc:Work>
    </rdf:RDF>
  </metadata>
  <g
     transform="translate(0,-286.41665)"
     id="layer1">
    <path
       id="path5424-9"
       d="m 2.6458338,286.94519 v 10e-4 c -1.169003,0 -2.11666699,0.94766 -2.11666699,2.11667 v 6.61458 c 1.18e-4,0.28324 0.151165,0.54549 0.396359,0.68731 0.24540199,0.14211 0.54797799,0.1425 0.79374999,0 0.24591,-0.14174 0.397429,-0.40402 0.397391,-0.68784 v -6.61458 c 0,-0.29226 0.236916,-0.52917 0.529167,-0.52917 h 5.2916661 c 0.292251,0 0.5291669,0.23691 0.5291669,0.52917 0,0.29226 -0.2369159,0.52916 -0.5291669,0.52916 H 5.2916668 c -1.169003,0 -2.1166659,0.94766 -2.1166659,2.11667 v 3.96928 c 1.17e-4,0.28324 0.1511639,0.54496 0.396358,0.68678 0.2454019,0.14211 0.547978,0.1425 0.79375,0 0.2459109,-0.14174 0.3974291,-0.40399 0.397392,-0.68781 v -3.96875 c 0,-0.29226 0.2369148,-0.52917 0.5291659,-0.52917 h 2.6458331 c 1.1690026,0 2.1166671,-0.94766 2.1166671,-2.11666 0,-1.16901 -0.9476645,-2.11667 -2.1166671,-2.11667 z m 3.98787,5.29167 v 0.001 c -0.145539,-0.004 -0.2892729,0.0328 -0.4154778,0.10541 -0.2459112,0.14173 -0.397429,0.40402 -0.3973923,0.68781 v 2.64636 c 1.18e-4,0.28324 0.1511642,0.54547 0.396358,0.68731 0.2454021,0.14208 0.547978,0.14248 0.7937503,0 0.2459098,-0.14176 0.3974298,-0.40402 0.397392,-0.68784 v -2.6453 c -1.18e-4,-0.28324 -0.1511641,-0.5465 -0.396358,-0.68834 -0.115176,-0.0666 -0.2452531,-0.10324 -0.3782722,-0.10644 z m 2.6458337,0 v 0.001 c -0.14554,-0.004 -0.289274,0.0328 -0.415479,0.10541 -0.2459106,0.14172 -0.3974287,0.40398 -0.3973917,0.6878 v 2.64636 c 1.18e-4,0.28324 0.1511652,0.54549 0.3963577,0.68731 0.245403,0.14211 0.547979,0.1425 0.79375,0 0.245911,-0.14174 0.3974305,-0.40402 0.3973925,-0.68784 v -2.6453 c -1.18e-4,-0.28324 -0.1511645,-0.54653 -0.3963585,-0.68834 -0.115176,-0.0666 -0.245252,-0.10324 -0.378271,-0.10644 z"
       style="stroke-width:0.26499999;stroke-miterlimit:4;stroke-dasharray:none" />
  </g>
</svg>
