<?xml version="1.0" encoding="UTF-8" standalone="no"?>
<svg
   xmlns:dc="http://purl.org/dc/elements/1.1/"
   xmlns:cc="http://creativecommons.org/ns#"
   xmlns:rdf="http://www.w3.org/1999/02/22-rdf-syntax-ns#"
   xmlns:svg="http://www.w3.org/2000/svg"
   xmlns="http://www.w3.org/2000/svg"
   id="svg8"
   version="1.1"
   viewBox="0 0 10.583333 10.583334"
   height="40"
   width="40">
  <defs
     id="defs2" />
  <metadata
     id="metadata5">
    <rdf:RDF>
      <cc:Work
         rdf:about="">
        <dc:format>image/svg+xml</dc:format>
        <dc:type
           rdf:resource="http://purl.org/dc/dcmitype/StillImage" />
        <dc:title></dc:title>
      </cc:Work>
    </rdf:RDF>
  </metadata>
  <g
     transform="translate(0,-286.41665)"
     id="layer1">
    <path
       id="path5540-6"
       d="m 1.3229167,286.94582 c -0.283246,1.1e-4 -0.54496801,0.15116 -0.68677901,0.39635 -0.14211,0.2454 -0.142506,0.54798 -0.001,0.79375 0.141728,0.2459 0.40398001,0.39743 0.68781301,0.3974 h 1.3229169 c 0.292251,0 0.5291671,0.23691 0.5291671,0.52917 v 2.64583 c 0,1.16901 0.9476631,2.11667 2.1166661,2.11667 1.169003,0 2.116667,-0.94766 2.116667,-2.11667 v -2.64583 c 0,-0.29205 0.236601,-0.52887 0.5286499,-0.52917 0.463713,0.088 1.0588501,0 1.3234331,0 0.283246,-1e-4 0.5449679,-0.15115 0.68678,-0.39634 0.1421092,-0.2454 0.1425052,-0.54798 0.00101,-0.79375 -0.1417326,-0.24591 -0.4039844,-0.39743 -0.6878185,-0.39741 h -1.322917 c -1.1690019,0 -2.1166661,0.94766 -2.1166661,2.11667 v 2.64583 c 0,0.29226 -0.2369159,0.52917 -0.5291669,0.52917 -0.2922511,0 -0.5291662,-0.23691 -0.5291662,-0.52917 v -2.64583 c 0,-1.1688 -0.9473499,-2.11637 -2.1161499,-2.11667 z m 7.938017,2.64481 c -0.1370409,-6e-5 -0.273989,0.0357 -0.396875,0.10697 -0.2459109,0.14173 -0.3974288,0.40399 -0.397392,0.68781 v 3.96928 c 0,0.29226 -0.2369159,0.52916 -0.5291669,0.52916 H 2.6458337 c -0.292251,0 -0.529167,-0.2369 -0.529167,-0.52916 v -3.96928 c -1.17e-4,-0.28324 -0.151164,-0.54549 -0.396358,-0.68731 -0.115023,-0.0665 -0.244912,-0.10314 -0.377755,-0.10644 -0.145713,-0.004 -0.289639,0.0328 -0.415995,0.10541 -0.24591101,0.14173 -0.39742902,0.40399 -0.39739202,0.68781 v 3.96928 c 0,1.16901 0.94766402,2.11666 2.11666702,2.11666 h 5.2916661 c 1.169003,0 2.1166672,-0.94765 2.1166672,-2.11666 v -3.96875 c -1.18e-4,-0.28324 -0.1511642,-0.546 -0.3963583,-0.68781 -0.1227008,-0.0711 -0.2598338,-0.10692 -0.396875,-0.10697 z"
       style="stroke-width:0.26499999;stroke-miterlimit:4;stroke-dasharray:none" />
  </g>
</svg>
