<?xml version="1.0" encoding="UTF-8" standalone="no"?>
<svg
   xmlns:dc="http://purl.org/dc/elements/1.1/"
   xmlns:cc="http://creativecommons.org/ns#"
   xmlns:rdf="http://www.w3.org/1999/02/22-rdf-syntax-ns#"
   xmlns:svg="http://www.w3.org/2000/svg"
   xmlns="http://www.w3.org/2000/svg"
   id="svg8"
   version="1.1"
   viewBox="0 0 10.583333 10.583334"
   height="40"
   width="40">
  <defs
     id="defs2" />
  <metadata
     id="metadata5">
    <rdf:RDF>
      <cc:Work
         rdf:about="">
        <dc:format>image/svg+xml</dc:format>
        <dc:type
           rdf:resource="http://purl.org/dc/dcmitype/StillImage" />
        <dc:title></dc:title>
      </cc:Work>
    </rdf:RDF>
  </metadata>
  <g
     transform="translate(0,-286.41665)"
     id="layer1">
    <path
       id="path5604-3"
       d="m 1.3229177,286.94464 c -0.283246,1e-4 -0.54496905,0.15324 -0.68677905,0.39843 -0.142111,0.2454 -0.14254,0.54798 -0.001,0.79375 0.141727,0.24591 0.40397905,0.39741 0.68781295,0.39738 h 1.3229169 c 0.292045,0 0.528874,0.23659 0.5291672,0.52866 0,1.16899 0.9476639,2.1167 2.1166661,2.11614 v 0.002 c 1.1690019,0 2.1166669,-0.94819 2.1166669,-2.11719 2.911e-4,-0.29184 0.2368079,-0.52835 0.52865,-0.52864 h 1.3234331 c 0.283251,-1.3e-4 0.544975,-0.15015 0.68678,-0.39534 0.1421102,-0.2454 0.1425392,-0.54795 0.00101,-0.79375 -0.1417386,-0.24592 -0.4039904,-0.39744 -0.6878185,-0.39739 -0.2645809,-0.003 -1.0583331,-0.003 -1.3229169,-0.003 -1.1655761,0.005 -2.1163981,0.95263 -2.1166662,2.11823 3e-6,0.29125 -0.2351799,0.52771 -0.5291669,0.5271 -0.293987,0 -0.5291711,-0.23606 -0.5291661,-0.5271 -5.829e-4,-1.16698 -0.9455579,-2.11336 -2.112533,-2.11564 -0.268716,-0.003 -1.062468,-0.003 -1.3270509,-0.003 z m 0.01912,2.64583 v 0.001 c -0.1455391,-0.004 -0.2892741,0.0328 -0.4154791,0.10541 -0.24591101,0.14174 -0.39742901,0.40452 -0.39739202,0.68834 v 2.64583 c 1.1801e-4,0.28324 0.15116501,0.5455 0.39635901,0.68731 0.24540201,0.14211 0.54797801,0.14251 0.79375001,0 0.24591,-0.14174 0.397429,-0.40402 0.397391,-0.68784 v -2.6453 c -1.17e-4,-0.28324 -0.151164,-0.54652 -0.396358,-0.68834 -0.115176,-0.0666 -0.245252,-0.10324 -0.378271,-0.10644 z m 7.9375001,0 v 0.001 c -0.1455402,-0.004 -0.2892732,0.0328 -0.4154792,0.10541 -0.2459109,0.14174 -0.3974288,0.40452 -0.397392,0.68834 v 2.64583 c 1.18e-4,0.28324 0.1511641,0.54547 0.396358,0.68731 0.2454032,0.14211 0.547978,0.14248 0.79375,0 0.2459112,-0.14176 0.3974293,-0.40399 0.3973923,-0.68784 v -2.6453 c -1.17e-4,-0.28324 -0.1511642,-0.5465 -0.3963583,-0.68834 -0.115175,-0.0666 -0.2452518,-0.10324 -0.3782708,-0.10644 z m -3.9878701,2.64583 c -1.169002,0 -2.1166662,0.94816 -2.1166662,2.11717 -2.909e-4,0.29184 -0.2368079,0.52837 -0.5286499,0.52867 h -1.323434 c -0.283251,1.3e-4 -0.54497405,0.15012 -0.68677905,0.39531 -0.14211,0.2454 -0.142507,0.54798 -0.001,0.79375 0.14173401,0.2459 0.40398505,0.39746 0.68781295,0.3974 0.264582,0.003 1.058334,0.003 1.322917,0.003 1.1655761,-0.005 2.1163991,-0.95264 2.1166672,-2.11823 -4e-6,-0.29125 0.2351791,-0.52771 0.5291661,-0.5271 0.2939867,0 0.5291719,0.23606 0.5291669,0.5271 5.821e-4,1.16697 0.9455571,2.11336 2.112532,2.11563 0.2687159,0.003 1.062468,0.003 1.3270511,0.003 0.283246,-1.1e-4 0.5449678,-0.15325 0.68678,-0.39844 0.1421091,-0.2454 0.1425071,-0.54798 0.00101,-0.79375 -0.141727,-0.2459 -0.403979,-0.39743 -0.6878129,-0.3974 H 7.937512 c -0.2920441,0 -0.528874,-0.23659 -0.5291661,-0.52864 0,-1.16901 -0.947665,-2.11672 -2.1166669,-2.11617 z"
       style="stroke-width:0.26499999;stroke-miterlimit:4;stroke-dasharray:none" />
  </g>
</svg>
