<?xml version="1.0" encoding="UTF-8" standalone="no"?>
<svg
   xmlns:dc="http://purl.org/dc/elements/1.1/"
   xmlns:cc="http://creativecommons.org/ns#"
   xmlns:rdf="http://www.w3.org/1999/02/22-rdf-syntax-ns#"
   xmlns:svg="http://www.w3.org/2000/svg"
   xmlns="http://www.w3.org/2000/svg"
   id="svg8"
   version="1.1"
   viewBox="0 0 10.583333 10.583334"
   height="40"
   width="40">
  <defs
     id="defs2" />
  <metadata
     id="metadata5">
    <rdf:RDF>
      <cc:Work
         rdf:about="">
        <dc:format>image/svg+xml</dc:format>
        <dc:type
           rdf:resource="http://purl.org/dc/dcmitype/StillImage" />
        <dc:title></dc:title>
      </cc:Work>
    </rdf:RDF>
  </metadata>
  <g
     transform="translate(0,-286.41665)"
     id="layer1">
    <path
       id="path2011"
       d="m 6.6151011,286.94535 c -0.137041,0 -0.2740819,0.0356 -0.396875,0.10647 -0.2459109,0.14174 -0.3974291,0.40399 -0.397392,0.68781 v 6.61458 c 0,1.1688 0.9473491,2.11638 2.1161502,2.11667 0.2651019,8e-5 1.0588498,0 1.3234329,0 0.2832459,-1.1e-4 0.5449681,-0.15116 0.68678,-0.39635 0.1421088,-0.2454 0.1425358,-0.548 0.00101,-0.79375 -0.141728,-0.24593 -0.4039791,-0.39743 -0.6878132,-0.3974 H 7.937477 c -0.292251,0 -0.5291658,-0.23691 -0.5291658,-0.52917 1.8e-6,-0.26458 0,-6.35 0,-6.61458 -1.233e-4,-0.28324 -0.1511695,-0.54599 -0.3963633,-0.68781 -0.1227942,-0.0709 -0.2598351,-0.10647 -0.396875,-0.10647 z m 2.6458331,0 c -0.137041,0 -0.2740811,0.0356 -0.396875,0.10647 -0.2459109,0.14174 -0.3974299,0.40399 -0.397392,0.68781 v 5.29167 c 1.18e-4,0.28323 0.1511641,0.54599 0.396358,0.68781 0.1152231,0.0664 0.245297,0.10287 0.3782721,0.10594 0.1455878,0.003 0.2893259,-0.0332 0.4154779,-0.10594 0.2459111,-0.14174 0.3974298,-0.40399 0.3973918,-0.68781 v -5.29167 c -1.17e-4,-0.28324 -0.1511637,-0.54599 -0.3963578,-0.68781 -0.122794,-0.0709 -0.2598341,-0.10647 -0.396875,-0.10647 z m -7.9380171,5.3e-4 c -0.283246,1.1e-4 -0.54496797,0.15116 -0.68677897,0.39635 -0.14211,0.2454 -0.142506,0.54797 -0.001,0.79375 0.141728,0.2459 0.40397997,0.39743 0.68781297,0.3974 H 2.645868 c 0.292251,0 0.5291672,0.23691 0.5291672,0.52917 -2.2e-6,0.26458 0,6.35 0,6.61458 1.169e-4,0.28324 0.1511638,0.54599 0.396358,0.68781 0.245587,0.14179 0.5481629,0.14179 0.79375,0 0.2459108,-0.14174 0.397429,-0.40399 0.397392,-0.68781 v -6.61458 c 0,-1.1688 -0.9473499,-2.11638 -2.1161502,-2.11667 -0.265102,-8e-5 -1.058851,0 -1.323434,0 z m 0.01912,2.64583 c -0.145589,-0.003 -0.289327,0.0332 -0.41547896,0.10594 -0.24591101,0.14174 -0.39742902,0.404 -0.39739202,0.68781 v 5.29167 c 1.18e-4,0.28324 0.15116501,0.54599 0.39635901,0.68781 0.24558707,0.14179 0.54816197,0.14179 0.79374997,0 0.24591,-0.14174 0.397429,-0.40399 0.397391,-0.68781 v -5.29167 c -1.17e-4,-0.28323 -0.151164,-0.54599 -0.396358,-0.68781 -0.115223,-0.0664 -0.245296,-0.10287 -0.378271,-0.10594 z"
       style="stroke-width:0.13229166;stroke-miterlimit:4;stroke-dasharray:none" />
  </g>
</svg>
