<?xml version="1.0" encoding="UTF-8" standalone="no"?>
<svg
   xmlns:dc="http://purl.org/dc/elements/1.1/"
   xmlns:cc="http://creativecommons.org/ns#"
   xmlns:rdf="http://www.w3.org/1999/02/22-rdf-syntax-ns#"
   xmlns:svg="http://www.w3.org/2000/svg"
   xmlns="http://www.w3.org/2000/svg"
   xmlns:sodipodi="http://sodipodi.sourceforge.net/DTD/sodipodi-0.dtd"
   xmlns:inkscape="http://www.inkscape.org/namespaces/inkscape"
   width="100"
   height="100"
   id="svg2"
   version="1.1"
   inkscape:version="0.91 r13725"
   sodipodi:docname="Deafen.svg">
  <metadata
     id="metadata14">
    <rdf:RDF>
      <cc:Work
         rdf:about="">
        <dc:format>image/svg+xml</dc:format>
        <dc:type
           rdf:resource="http://purl.org/dc/dcmitype/StillImage" />
      </cc:Work>
    </rdf:RDF>
  </metadata>
  <defs
     id="defs12" />
  <sodipodi:namedview
     pagecolor="#ffffff"
     bordercolor="#666666"
     borderopacity="1"
     objecttolerance="10"
     gridtolerance="10"
     guidetolerance="10"
     inkscape:pageopacity="0"
     inkscape:pageshadow="2"
     inkscape:window-width="1920"
     inkscape:window-height="1017"
     id="namedview10"
     showgrid="false"
     inkscape:zoom="4.72"
     inkscape:cx="62.65688"
     inkscape:cy="75.899502"
     inkscape:window-x="-8"
     inkscape:window-y="-8"
     inkscape:window-maximized="1"
     inkscape:current-layer="svg2" />
  <g
     id="g4">
    <circle
       cx="50"
       cy="50"
       r="50"
       id="circle6"
       fill="#FBFBFB" />
  </g>
  <path
     style="fill:#c9c9c9;fill-opacity:1"
     d="M 27.737623,77.465391 C 24.250196,76.216058 21.919934,73.978535 20.189956,70.218099 19.37466,68.445896 19.301954,67.68469 19.177759,59.620998 19.032736,50.204561 19.346943,47.057024 20.882762,42.541527 24.13087,32.991693 32.352243,25.35584 42.281895,22.666424 c 3.898624,-1.055931 11.992999,-0.953192 16.024067,0.203385 9.71541,2.787508 17.621233,10.267101 20.832866,19.7097 1.479056,4.348604 1.824871,7.919724 1.687624,17.427611 -0.124048,8.593441 -0.137024,8.711393 -1.195148,10.866058 -1.248089,2.541492 -3.834768,5.072499 -6.391812,6.254252 -1.474581,0.681487 -2.51287,0.832943 -5.666601,0.8266 -4.078206,-0.0083 -5.368057,-0.394587 -5.793645,-1.735503 -0.359762,-1.133505 2.842793,-21.619959 3.553484,-22.731329 0.556172,-0.869733 0.742032,-0.908329 3.329505,-0.691406 1.888669,0.15834 3.43541,0.574205 4.976364,1.337974 l 2.235917,1.108221 -0.0057,-3.119674 c -0.0212,-11.588961 -8.156764,-21.837839 -19.686513,-24.800325 -3.265017,-0.838925 -9.075749,-0.84128 -12.355906,-0.005 -8.472489,2.160052 -15.525069,8.612859 -18.377291,16.814424 -0.94321,2.712199 -1.618314,7.585114 -1.385836,10.003004 l 0.122162,1.27055 1.229266,-0.753745 c 1.530193,-0.938262 5.078185,-1.981691 6.981703,-2.053255 2.558911,-0.09619 2.702674,0.278676 4.451911,11.608711 0.864806,5.601447 1.572375,10.679771 1.572375,11.285171 0,1.702961 -1.352671,2.34711 -5.315982,2.531487 -2.607195,0.121284 -3.824214,-0.0052 -5.367068,-0.557935 z"
     id="path4155"
     inkscape:connector-curvature="0" />
</svg>
