<?xml version="1.0" encoding="UTF-8" standalone="no"?>
<svg
   xmlns:dc="http://purl.org/dc/elements/1.1/"
   xmlns:cc="http://creativecommons.org/ns#"
   xmlns:rdf="http://www.w3.org/1999/02/22-rdf-syntax-ns#"
   xmlns:svg="http://www.w3.org/2000/svg"
   xmlns="http://www.w3.org/2000/svg"
   xmlns:xlink="http://www.w3.org/1999/xlink"
   xmlns:sodipodi="http://sodipodi.sourceforge.net/DTD/sodipodi-0.dtd"
   xmlns:inkscape="http://www.inkscape.org/namespaces/inkscape"
   width="1296"
   height="548"
   id="svg2"
   version="1.1"
   inkscape:version="0.48.4 r9939"
   sodipodi:docname="hexagon.svg">
  <metadata
     id="metadata34">
    <rdf:RDF>
      <cc:Work
         rdf:about="">
        <dc:format>image/svg+xml</dc:format>
        <dc:type
           rdf:resource="http://purl.org/dc/dcmitype/StillImage" />
        <dc:title />
      </cc:Work>
    </rdf:RDF>
  </metadata>
  <defs
     id="defs32">
    <defs
       id="defs12">
      <polygon
         id="a"
         points="159.349,2 1136.651,2 1293.69,274 1136.651,546 159.349,546 2.31,274 " />
    </defs>
    <clipPath
       id="b">
      <use
         xlink:href="#a"
         overflow="visible"
         id="use16"
         style="overflow:visible"
         x="0"
         y="0"
         width="1296"
         height="548" />
    </clipPath>
  </defs>
  <sodipodi:namedview
     pagecolor="#ffffff"
     bordercolor="#666666"
     borderopacity="1"
     objecttolerance="10"
     gridtolerance="10"
     guidetolerance="10"
     inkscape:pageopacity="0"
     inkscape:pageshadow="2"
     inkscape:window-width="1680"
     inkscape:window-height="987"
     id="namedview30"
     showgrid="false"
     inkscape:zoom="0.63508665"
     inkscape:cx="493.22818"
     inkscape:cy="344.98493"
     inkscape:window-x="-4"
     inkscape:window-y="26"
     inkscape:window-maximized="1"
     inkscape:current-layer="svg2" />
  <g
     id="g3784"
     transform="translate(-12.919074,-5.5110597)">
    <polygon
       transform="matrix(0.98017605,0,0,0.98017605,25.764994,10.942822)"
       points="1137.806,548 158.194,548 0,274 158.194,0 1137.806,0 1296,274 "
       id="polygon6"
       style="opacity:0" />
    <polygon
       transform="matrix(0.98017605,0,0,0.98017605,25.764994,10.942822)"
       style="opacity:0.83999999;fill:#8f28f6"
       id="polygon10"
       points="2.31,274 159.349,2 1136.651,2 1293.69,274 1136.651,546 159.349,546 " />
    <g
       transform="matrix(0.98017605,0,0,0.98017605,25.764994,10.942822)"
       style="opacity:0.83999999;fill:none;stroke:#7e12ea;stroke-width:4;stroke-miterlimit:10"
       id="g18"
       stroke-miterlimit="10"
       clip-path="url(#b)">
      <path
         inkscape:connector-curvature="0"
         id="path20"
         d="M 159.349,461 134.812,418.5 159.349,376 h 49.075 l 24.537,42.5 -24.538,42.5 H 159.349 z M 134.811,418.5 159.348,376 134.811,333.5 H 85.736 L 61.199,376 85.736,418.5 h 49.075 z m 0,85 24.537,-42.5 -24.537,-42.5 H 85.736 L 61.199,461 85.736,503.5 h 49.075 z M 208.423,546 232.96,503.5 208.423,461 h -49.075 l -24.537,42.5 24.537,42.5 h 49.075 z m 0,-170 24.537,-42.5 -24.537,-42.5 h -49.075 l -24.537,42.5 24.537,42.5 h 49.075 z M 134.811,333.5 159.348,291 134.811,248.5 H 85.736 L 61.199,291 85.736,333.5 h 49.075 z M 61.199,376 85.736,333.5 61.199,291 H 12.124 l -24.537,42.5 24.537,42.5 h 49.075 z m 0,-85 L 85.736,248.5 61.199,206 H 12.124 L -12.413,248.5 12.124,291 H 61.199 z M 134.811,248.5 159.348,206 134.811,163.5 H 85.736 L 61.199,206 85.736,248.5 h 49.075 z M 61.199,206 85.736,163.5 61.199,121 H 12.124 L -12.413,163.5 12.124,206 H 61.199 z M 134.811,163.5 159.348,121 134.811,78.5 H 85.736 L 61.199,121 85.736,163.5 h 49.075 z M 208.423,121 232.96,78.5 208.423,36 h -49.075 l -24.537,42.5 24.537,42.5 h 49.075 z m 73.613,212.5 24.537,-42.5 -24.537,-42.5 h -49.075 l -24.538,42.5 24.537,42.5 h 49.076 z M 61.199,461 85.736,418.5 61.199,376 H 12.124 l -24.537,42.5 24.537,42.5 h 49.075 z m 0,85 L 85.736,503.5 61.199,461 H 12.124 L -12.413,503.5 12.124,546 H 61.199 z M -12.413,333.5 12.124,291 -12.413,248.5 h -49.075 l -24.537,42.5 24.537,42.5 h 49.075 z m 0,85 24.537,-42.5 -24.537,-42.5 h -49.075 l -24.537,42.5 24.537,42.5 h 49.075 z m 0,85 24.537,-42.5 -24.537,-42.5 h -49.075 l -24.537,42.5 24.537,42.5 h 49.075 z M -86.025,546 -61.488,503.5 -86.025,461 H -135.1 l -24.537,42.5 24.537,42.5 h 49.075 z M 61.199,121 85.736,78.5 61.199,36 H 12.124 L -12.413,78.5 12.124,121 h 49.075 z" />
      <path
         inkscape:connector-curvature="0"
         id="path22"
         d="m 1293.69,189 -24.537,-42.5 24.537,-42.5 h 49.075 l 24.537,42.5 -24.537,42.5 h -49.075 z m -24.537,-42.5 24.537,-42.5 -24.537,-42.5 h -49.075 l -24.537,42.5 24.537,42.5 h 49.075 z m 0,85 24.537,-42.5 -24.537,-42.5 h -49.075 l -24.537,42.5 24.537,42.5 h 49.075 z m 73.612,42.5 24.537,-42.5 -24.537,-42.5 h -49.075 l -24.537,42.5 24.537,42.5 h 49.075 z m 0,-170 24.537,-42.5 -24.537,-42.5 h -49.075 l -24.537,42.5 24.537,42.5 h 49.075 z M 1269.153,61.5 1293.69,19 1269.153,-23.5 h -49.075 l -24.537,42.5 24.537,42.5 h 49.075 z M 1195.541,104 1220.078,61.5 1195.541,19 h -49.075 l -24.537,42.5 24.537,42.5 h 49.075 z m 0,-85 24.537,-42.5 -24.537,-42.5 h -49.075 l -24.537,42.5 24.537,42.5 h 49.075 z m 73.612,-42.5 24.537,-42.5 -24.537,-42.5 h -49.075 l -24.537,42.5 24.537,42.5 h 49.075 z m -73.612,-42.5 24.537,-42.5 -24.537,-42.5 h -49.075 l -24.537,42.5 24.537,42.5 h 49.075 z m 73.612,-42.5 24.537,-42.5 -24.537,-42.5 h -49.075 l -24.537,42.5 24.537,42.5 h 49.075 z m 73.612,-42.5 24.537,-42.5 -24.537,-42.5 h -49.075 l -24.537,42.5 24.537,42.5 h 49.075 z m 73.612,212.5 24.537,-42.5 -24.537,-42.5 h -49.075 l -24.537,42.5 24.537,42.5 h 49.075 z M 1195.541,189 1220.078,146.5 1195.541,104 h -49.075 l -24.537,42.5 24.537,42.5 h 49.075 z m 0,85 24.537,-42.5 -24.537,-42.5 h -49.075 l -24.537,42.5 24.537,42.5 h 49.075 z M 1121.929,61.5 1146.466,19 1121.929,-23.5 h -49.075 l -24.537,42.5 24.537,42.5 h 49.075 z m 0,85 24.537,-42.5 -24.537,-42.5 h -49.075 l -24.537,42.5 24.537,42.5 h 49.075 z m 0,85 24.537,-42.5 -24.537,-42.5 h -49.075 l -24.537,42.5 24.537,42.5 h 49.075 z m -73.612,42.5 24.537,-42.5 -24.537,-42.5 h -49.075 l -24.537,42.5 24.537,42.5 h 49.075 z m 147.224,-425 24.537,-42.5 -24.537,-42.5 h -49.075 l -24.537,42.5 24.537,42.5 h 49.075 z" />
      <path
         inkscape:connector-curvature="0"
         id="path24"
         d="m 1293.69,733 -24.537,-42.5 24.537,-42.5 h 49.075 l 24.537,42.5 -24.537,42.5 h -49.075 z m -24.537,-42.5 24.537,-42.5 -24.537,-42.5 h -49.075 l -24.537,42.5 24.537,42.5 h 49.075 z m 0,85 24.537,-42.5 -24.537,-42.5 h -49.075 l -24.537,42.5 24.537,42.5 h 49.075 z m 73.612,42.5 24.537,-42.5 -24.537,-42.5 h -49.075 l -24.537,42.5 24.537,42.5 h 49.075 z m 0,-170 24.537,-42.5 -24.537,-42.5 h -49.075 l -24.537,42.5 24.537,42.5 h 49.075 z m -73.612,-42.5 24.537,-42.5 -24.537,-42.5 h -49.075 l -24.537,42.5 24.537,42.5 h 49.075 z m -73.612,42.5 24.537,-42.5 -24.537,-42.5 h -49.075 l -24.537,42.5 24.537,42.5 h 49.075 z m 0,-85 24.537,-42.5 -24.537,-42.5 h -49.075 l -24.537,42.5 24.537,42.5 h 49.075 z m 73.612,-42.5 24.537,-42.5 -24.537,-42.5 h -49.075 l -24.537,42.5 24.537,42.5 h 49.075 z m -73.612,-42.5 24.537,-42.5 -24.537,-42.5 h -49.075 l -24.537,42.5 24.537,42.5 h 49.075 z m 73.612,-42.5 24.537,-42.5 -24.537,-42.5 h -49.075 l -24.537,42.5 24.537,42.5 h 49.075 z m 73.612,-42.5 24.537,-42.5 -24.537,-42.5 h -49.075 l -24.537,42.5 24.537,42.5 h 49.075 z m 73.612,212.5 24.537,-42.5 -24.537,-42.5 h -49.075 l -24.537,42.5 24.537,42.5 h 49.075 z M 1195.541,733 1220.078,690.5 1195.541,648 h -49.075 l -24.537,42.5 24.537,42.5 h 49.075 z m 0,85 24.537,-42.5 -24.537,-42.5 h -49.075 l -24.537,42.5 24.537,42.5 h 49.075 z m -73.612,-212.5 24.537,-42.5 -24.537,-42.5 h -49.075 l -24.537,42.5 24.537,42.5 h 49.075 z m 0,85 24.537,-42.5 -24.537,-42.5 h -49.075 l -24.537,42.5 24.537,42.5 h 49.075 z m 0,85 24.537,-42.5 -24.537,-42.5 h -49.075 l -24.537,42.5 24.537,42.5 h 49.075 z m -73.612,42.5 24.537,-42.5 -24.537,-42.5 h -49.075 l -24.537,42.5 24.537,42.5 h 49.075 z m 147.224,-425 24.537,-42.5 -24.537,-42.5 h -49.075 l -24.537,42.5 24.537,42.5 h 49.075 z" />
    </g>
    <polygon
       transform="matrix(0.98017605,0,0,0.98017605,25.764994,10.942822)"
       style="fill:none;stroke:#500a9a;stroke-width:12;stroke-miterlimit:10;stroke-dasharray:none"
       id="polygon28"
       points="2.31,274 159.349,2 1136.651,2 1293.69,274 1136.651,546 159.349,546 "
       stroke-miterlimit="10" />
  </g>
</svg>
