<?xml version="1.0" encoding="UTF-8" standalone="no"?>
<svg
   xmlns:dc="http://purl.org/dc/elements/1.1/"
   xmlns:cc="http://creativecommons.org/ns#"
   xmlns:rdf="http://www.w3.org/1999/02/22-rdf-syntax-ns#"
   xmlns:svg="http://www.w3.org/2000/svg"
   xmlns="http://www.w3.org/2000/svg"
   xmlns:xlink="http://www.w3.org/1999/xlink"
   xmlns:sodipodi="http://sodipodi.sourceforge.net/DTD/sodipodi-0.dtd"
   xmlns:inkscape="http://www.inkscape.org/namespaces/inkscape"
   width="100"
   height="100"
   id="svg2"
   version="1.1"
   inkscape:version="0.91 r13725"
   sodipodi:docname="Info_on.svg">
  <metadata
     id="metadata18">
    <rdf:RDF>
      <cc:Work
         rdf:about="">
        <dc:format>image/svg+xml</dc:format>
        <dc:type
           rdf:resource="http://purl.org/dc/dcmitype/StillImage" />
        <dc:title />
      </cc:Work>
    </rdf:RDF>
  </metadata>
  <defs
     id="defs16">
    <linearGradient
       inkscape:collect="always"
       id="linearGradient4184">
      <stop
         style="stop-color:#000000;stop-opacity:1;"
         offset="0"
         id="stop4186" />
      <stop
         style="stop-color:#000000;stop-opacity:0;"
         offset="1"
         id="stop4188" />
    </linearGradient>
    <linearGradient
       inkscape:collect="always"
       xlink:href="#linearGradient4184"
       id="linearGradient4190"
       x1="40.201536"
       y1="47.625472"
       x2="59.798461"
       y2="47.625472"
       gradientUnits="userSpaceOnUse" />
  </defs>
  <sodipodi:namedview
     pagecolor="#ffffff"
     bordercolor="#666666"
     borderopacity="1"
     objecttolerance="10"
     gridtolerance="10"
     guidetolerance="10"
     inkscape:pageopacity="0"
     inkscape:pageshadow="2"
     inkscape:window-width="1920"
     inkscape:window-height="1017"
     id="namedview14"
     showgrid="false"
     inkscape:zoom="3.337544"
     inkscape:cx="-63.736402"
     inkscape:cy="82.965484"
     inkscape:window-x="-8"
     inkscape:window-y="-8"
     inkscape:window-maximized="1"
     inkscape:current-layer="svg2" />
  <g
     id="g4"
     style="fill:#8cfffa;fill-opacity:1">
    <path
       d="M100 50c0 27.614-22.386 50-50 50s-50-22.386-50-50 22.386-50 50-50 50 22.386 50 50zm-50-45.75c-25.267 0-45.75 20.483-45.75 45.75s20.483 45.75 45.75 45.75 45.75-20.483 45.75-45.75-20.483-45.75-45.75-45.75z"
       id="path6"
       style="fill:#8cfffa;fill-opacity:1"
       fill="#3278BE" />
    <circle
       cx="50"
       cy="50"
       r="38.5"
       id="circle8"
       style="fill:#8cfffa;fill-opacity:1"
       fill="#3278BE" />
    <path
       d="M70.75 47.5c0 11.46-9.29 20.75-20.75 20.75s-20.75-9.29-20.75-20.75 9.29-20.75 20.75-20.75 20.75 9.29 20.75 20.75zm-20.75-12c-6.627 0-12 5.373-12 12s5.373 12 12 12 12-5.373 12-12-5.373-12-12-12z"
       id="path10"
       style="fill:#8cfffa;fill-opacity:1"
       fill="#040404"
       opacity=".5" />
    <path
       d="M70.75 50c0 11.46-9.29 20.75-20.75 20.75s-20.75-9.29-20.75-20.75 9.29-20.75 20.75-20.75 20.75 9.29 20.75 20.75zm-20.75-12c-6.627 0-12 5.373-12 12s5.373 12 12 12 12-5.373 12-12-5.373-12-12-12z"
       id="path12"
       style="fill:#8cfffa;fill-opacity:1"
       fill="#FBFBFB" />
    <circle
       id="circle4156"
       r="38.5"
       cy="50"
       cx="50"
       style="fill:#8cfffa;fill-opacity:1"
       fill="#3278BE" />
  </g>
  <rect
     style="fill:#3278be;fill-opacity:1;stroke:#000000;stroke-width:0;stroke-miterlimit:4;stroke-dasharray:none;stroke-opacity:1"
     id="rect4238-2"
     width="3.0720353"
     height="5.2868781"
     x="52.595337"
     y="25.296186" />
  <rect
     style="fill:#3278be;fill-opacity:1;stroke:#000000;stroke-width:0;stroke-miterlimit:4;stroke-dasharray:none;stroke-opacity:1"
     id="rect4238"
     width="3.0720353"
     height="5.2868781"
     x="44.313534"
     y="25.326824" />
  <rect
     style="fill:#3278be;fill-opacity:1;stroke:#000000;stroke-width:0;stroke-miterlimit:4;stroke-dasharray:none;stroke-opacity:1"
     id="rect4221"
     width="6.2102757"
     height="3.8665254"
     x="40.701542"
     y="70.656784" />
  <text
     xml:space="preserve"
     style="font-style:normal;font-weight:normal;font-size:33.51947403px;line-height:125%;font-family:sans-serif;letter-spacing:0px;word-spacing:0px;fill:#3278be;fill-opacity:1;stroke:#000000;stroke-width:0;stroke-linecap:butt;stroke-linejoin:miter;stroke-miterlimit:4;stroke-dasharray:none;stroke-opacity:1;"
     x="39.154861"
     y="71.182434"
     id="text4146-3"
     sodipodi:linespacing="125%"><tspan
       sodipodi:role="line"
       id="tspan4148-4"
       x="39.154861"
       y="71.182434"
       style="font-style:normal;font-variant:normal;font-weight:bold;font-stretch:normal;font-size:75.41881561px;font-family:'Times New Roman';-inkscape-font-specification:'Times New Roman, Bold';fill:#3278be;fill-opacity:1;stroke:#000000;stroke-width:0;stroke-miterlimit:4;stroke-dasharray:none;stroke-opacity:1;">i</tspan></text>
  <rect
     style="fill:#3278be;fill-opacity:1;stroke:#000000;stroke-width:0;stroke-miterlimit:4;stroke-dasharray:none;stroke-opacity:1"
     id="rect4219"
     width="5.5055456"
     height="3.258384"
     x="40.701542"
     y="37.894737" />
  <rect
     style="fill:#3278be;fill-opacity:1;stroke:#000000;stroke-width:0;stroke-miterlimit:4;stroke-dasharray:none;stroke-opacity:1"
     id="rect4221-0"
     width="6.2102757"
     height="3.8665254"
     x="53.088181"
     y="70.643539" />
  <text
     xml:space="preserve"
     style="font-style:normal;font-weight:normal;font-size:33.51947403px;line-height:125%;font-family:sans-serif;letter-spacing:0px;word-spacing:0px;fill:#fbfbfb;fill-opacity:1;stroke:none;stroke-width:1px;stroke-linecap:butt;stroke-linejoin:miter;stroke-opacity:1"
     x="39.154861"
     y="75.556961"
     id="text4146"
     sodipodi:linespacing="125%"><tspan
       sodipodi:role="line"
       id="tspan4148"
       x="39.154861"
       y="75.556961"
       style="font-style:normal;font-variant:normal;font-weight:bold;font-stretch:normal;font-size:75.41881561px;font-family:'Times New Roman';-inkscape-font-specification:'Times New Roman, Bold';fill:#fbfbfb;fill-opacity:1">i</tspan></text>
</svg>
