<?xml version="1.0" encoding="UTF-8" standalone="no"?>
<svg
   xmlns:dc="http://purl.org/dc/elements/1.1/"
   xmlns:cc="http://creativecommons.org/ns#"
   xmlns:rdf="http://www.w3.org/1999/02/22-rdf-syntax-ns#"
   xmlns:svg="http://www.w3.org/2000/svg"
   xmlns="http://www.w3.org/2000/svg"
   xmlns:sodipodi="http://sodipodi.sourceforge.net/DTD/sodipodi-0.dtd"
   xmlns:inkscape="http://www.inkscape.org/namespaces/inkscape"
   width="100"
   height="100"
   id="svg2"
   version="1.1"
   inkscape:version="0.91 r13725"
   sodipodi:docname="Mute_on.svg">
  <metadata
     id="metadata14">
    <rdf:RDF>
      <cc:Work
         rdf:about="">
        <dc:format>image/svg+xml</dc:format>
        <dc:type
           rdf:resource="http://purl.org/dc/dcmitype/StillImage" />
        <dc:title></dc:title>
      </cc:Work>
    </rdf:RDF>
  </metadata>
  <defs
     id="defs12" />
  <sodipodi:namedview
     pagecolor="#ffffff"
     bordercolor="#666666"
     borderopacity="1"
     objecttolerance="10"
     gridtolerance="10"
     guidetolerance="10"
     inkscape:pageopacity="0"
     inkscape:pageshadow="2"
     inkscape:window-width="1920"
     inkscape:window-height="1017"
     id="namedview10"
     showgrid="false"
     inkscape:zoom="2.36"
     inkscape:cx="50"
     inkscape:cy="50"
     inkscape:window-x="-8"
     inkscape:window-y="-8"
     inkscape:window-maximized="1"
     inkscape:current-layer="svg2" />
  <g
     id="g4"
     style="fill:#eba601;fill-opacity:1">
    <circle
       fill="#FBFBFB"
       cx="50"
       cy="50"
       r="50"
       id="circle6"
       style="fill:#eba601;fill-opacity:1" />
  </g>
  <path
     style="fill:#fbfbfb;fill-opacity:1"
     d="m 48.160299,80.672652 -0.07483,-4.702092 -1.813831,-0.334523 c -3.802596,-0.701306 -8.19111,-3.403842 -10.521997,-6.479658 -3.027926,-3.995624 -3.937674,-7.357522 -3.937674,-14.55132 l 0,-4.809838 1.982903,0.08036 1.982906,0.08036 0.159439,5.880342 c 0.131791,4.860615 0.247782,6.093774 0.668867,7.111112 1.803404,4.356991 5.643498,7.736492 9.943038,8.750435 1.879407,0.443211 5.281279,0.445355 7.175263,0.0045 3.38493,-0.78786 7.551197,-3.996609 9.061408,-6.978854 1.372065,-2.709437 1.573184,-3.939353 1.573184,-9.620609 l 0,-5.283693 1.91453,0 1.914529,0 -0.0098,5.538463 c -0.0065,3.665837 -0.133631,6.047075 -0.376147,7.042735 -1.626144,6.676155 -7.18988,11.952594 -13.973087,13.251547 l -1.641026,0.314249 -0.07483,4.704282 -0.07484,4.704282 -1.901613,0 -1.901613,0 -0.07483,-4.702091 z M 48.035372,69.225406 C 45.195167,68.663986 41.947189,66.274163 40.496303,63.678247 38.736248,60.529165 38.811763,61.393132 38.7112,43.255083 38.6121,25.38231 38.66839,24.442156 40.015199,21.471825 c 1.961039,-4.324981 7.59198,-7.589141 11.557445,-6.699654 4.404672,0.988005 7.571788,3.71735 9.202412,7.93042 l 0.703428,1.817448 0.08897,15.831867 c 0.05401,9.608692 -0.01997,16.722607 -0.188207,18.097932 -0.66341,5.42356 -3.970697,9.351374 -8.970586,10.653678 -1.703717,0.443763 -2.616275,0.469197 -4.373292,0.12189 z"
     id="path4153"
     inkscape:connector-curvature="0" />
</svg>
