<?xml version="1.0" encoding="UTF-8" standalone="no"?>
<svg
   xmlns:dc="http://purl.org/dc/elements/1.1/"
   xmlns:cc="http://creativecommons.org/ns#"
   xmlns:rdf="http://www.w3.org/1999/02/22-rdf-syntax-ns#"
   xmlns:svg="http://www.w3.org/2000/svg"
   xmlns="http://www.w3.org/2000/svg"
   xmlns:sodipodi="http://sodipodi.sourceforge.net/DTD/sodipodi-0.dtd"
   xmlns:inkscape="http://www.inkscape.org/namespaces/inkscape"
   width="120"
   height="120"
   id="svg2"
   version="1.1"
   inkscape:version="0.91 r13725"
   sodipodi:docname="Ringed Channel Shell.svg">
  <metadata
     id="metadata16">
    <rdf:RDF>
      <cc:Work
         rdf:about="">
        <dc:format>image/svg+xml</dc:format>
        <dc:type
           rdf:resource="http://purl.org/dc/dcmitype/StillImage" />
        <dc:title></dc:title>
      </cc:Work>
    </rdf:RDF>
  </metadata>
  <defs
     id="defs14" />
  <sodipodi:namedview
     pagecolor="#ffffff"
     bordercolor="#666666"
     borderopacity="1"
     objecttolerance="10"
     gridtolerance="10"
     guidetolerance="10"
     inkscape:pageopacity="0"
     inkscape:pageshadow="2"
     inkscape:window-width="1920"
     inkscape:window-height="1017"
     id="namedview12"
     showgrid="false"
     inkscape:zoom="5.5625733"
     inkscape:cx="32.344511"
     inkscape:cy="54.060664"
     inkscape:window-x="-8"
     inkscape:window-y="-8"
     inkscape:window-maximized="1"
     inkscape:current-layer="svg2" />
  <g
     transform="translate(10 10)"
     id="g4">
    <path
       fill="#FBFBFB"
       d="M110 50c0 33.137-26.863 60-60 60s-60-26.863-60-60 26.863-60 60-60 60 26.863 60 60zm-60-57.5c-31.756 0-57.5 25.744-57.5 57.5s25.744 57.5 57.5 57.5 57.5-25.744 57.5-57.5-25.744-57.5-57.5-57.5z"
       id="path6" />
    <path
       d="M 60 10 A 50 50 0 0 0 10 60 A 50 50 0 0 0 60 110 A 50 50 0 0 0 110 60 A 50 50 0 0 0 60 10 z M 60 25.910156 A 33.640667 34.090096 0 0 1 93.640625 60 A 33.640667 34.090096 0 0 1 60 94.089844 A 33.640667 34.090096 0 0 1 26.359375 60 A 33.640667 34.090096 0 0 1 60 25.910156 z "
       transform="translate(-10,-10)"
       id="circle8"
       style="fill:#fbfbfb;fill-opacity:1" />
  </g>
  <g
     id="g4144"
     transform="translate(10 10)">
    <path
       id="path4146"
       d="M110 50c0 33.137-26.863 60-60 60s-60-26.863-60-60 26.863-60 60-60 60 26.863 60 60zm-60-57.5c-31.756 0-57.5 25.744-57.5 57.5s25.744 57.5 57.5 57.5 57.5-25.744 57.5-57.5-25.744-57.5-57.5-57.5z"
       fill="#FBFBFB" />
    <circle
       id="circle4148"
       r="50"
       cy="50"
       cx="50"
       style="display:none;fill:#fbfbfb" />
  </g>
</svg>
