<?xml version="1.0" encoding="UTF-8" standalone="no"?>
<svg
   xmlns:dc="http://purl.org/dc/elements/1.1/"
   xmlns:cc="http://creativecommons.org/ns#"
   xmlns:rdf="http://www.w3.org/1999/02/22-rdf-syntax-ns#"
   xmlns:svg="http://www.w3.org/2000/svg"
   xmlns="http://www.w3.org/2000/svg"
   xmlns:sodipodi="http://sodipodi.sourceforge.net/DTD/sodipodi-0.dtd"
   xmlns:inkscape="http://www.inkscape.org/namespaces/inkscape"
   width="100"
   height="100"
   id="svg2"
   version="1.1"
   inkscape:version="0.91 r13725"
   sodipodi:docname="Upload_on.svg">
  <metadata
     id="metadata14">
    <rdf:RDF>
      <cc:Work
         rdf:about="">
        <dc:format>image/svg+xml</dc:format>
        <dc:type
           rdf:resource="http://purl.org/dc/dcmitype/StillImage" />
        <dc:title></dc:title>
      </cc:Work>
    </rdf:RDF>
  </metadata>
  <defs
     id="defs12">
    <inkscape:path-effect
       linkedpath=""
       is_visible="true"
       id="path-effect4148"
       effect="clone_original" />
    <inkscape:path-effect
       effect="clone_original"
       id="path-effect4144"
       is_visible="true"
       linkedpath="" />
  </defs>
  <sodipodi:namedview
     pagecolor="#ffffff"
     bordercolor="#666666"
     borderopacity="1"
     objecttolerance="10"
     gridtolerance="10"
     guidetolerance="10"
     inkscape:pageopacity="0"
     inkscape:pageshadow="2"
     inkscape:window-width="1920"
     inkscape:window-height="1017"
     id="namedview10"
     showgrid="false"
     inkscape:zoom="4"
     inkscape:cx="83.128878"
     inkscape:cy="17.34057"
     inkscape:window-x="-8"
     inkscape:window-y="-8"
     inkscape:window-maximized="1"
     inkscape:current-layer="svg2" />
  <g
     id="g4156"
     transform="translate(-4.893795,-2.317013)">
    <g
       id="g4152" />
  </g>
  <rect
     style="fill:#eba601;fill-opacity:1;stroke:none;stroke-opacity:1"
     id="rect4764"
     width="100.00503"
     height="99.990074"
     x="1.9550323e-005"
     y="0.0012440674" />
  <path
     style="fill:#ffffff;fill-opacity:1"
     d="M 10.5484,93.615704 C 9.3402098,93.168928 8.2791024,92.229576 7.7068734,91.100221 l -0.4161158,-0.821245 0,-14.480992 0,-14.480993 0.400857,-0.773256 c 0.5678249,-1.095337 1.2739881,-1.773507 2.4257394,-2.329573 0.870972,-0.420509 1.136943,-0.482271 2.07682,-0.482271 0.898636,0 1.223563,0.06846 1.953538,0.411586 1.687467,0.7932 2.561575,2.004502 2.785511,3.860041 0.08198,0.679288 0.121667,5.368794 0.09806,11.586307 -0.03928,10.345423 -0.03698,10.445778 0.241519,10.512527 0.154651,0.03706 15.022272,0.05011 33.039157,0.02898 l 32.757971,-0.03842 0.0703,-11.458261 0.07029,-11.458261 0.404546,-0.811487 c 1.128528,-2.26373 3.898013,-3.267086 6.171225,-2.235769 1.468768,0.666355 2.452997,1.824438 2.757587,3.244686 0.222071,1.035484 0.219721,27.823779 -0.0025,28.860111 -0.331946,1.547814 -1.489458,2.811422 -3.11848,3.404321 L 88.41243,94.006021 49.960476,93.988384 11.508522,93.970745 10.5484,93.615704 Z M 49.295433,69.951892 C 47.695416,69.646638 46.333395,68.580591 45.647659,67.09679 l -0.39702,-0.859073 -0.03858,-21.696911 c -0.02122,-11.9333 -0.09151,-21.676337 -0.156186,-21.651192 -0.06468,0.02515 -2.767778,2.652765 -6.006879,5.839152 -3.239102,3.186388 -6.173974,5.980753 -6.52194,6.209699 -1.342213,0.883119 -3.423666,0.866251 -4.838203,-0.03921 -2.129798,-1.363308 -2.928823,-3.699583 -2.00705,-5.868434 0.364064,-0.856608 0.908418,-1.424975 11.100577,-11.590214 L 47.500113,6.7511758 48.502301,6.3725769 c 0.551203,-0.2082287 1.256396,-0.3785978 1.567095,-0.3785978 0.713489,0 2.415536,0.6852839 3.017592,1.2149544 0.252223,0.2218983 5.045407,4.9950755 10.651519,10.6070645 11.515111,11.527177 11.022425,10.946052 11.022425,13.001017 0,0.986032 -0.05434,1.237152 -0.414746,1.916748 -1.102887,2.079627 -2.921551,3.049098 -5.172568,2.757328 -1.57299,-0.203887 -1.723596,-0.32793 -8.110044,-6.679685 -3.288366,-3.270502 -6.02464,-5.946369 -6.080611,-5.946369 -0.05597,0 -0.101767,9.541617 -0.101767,21.203595 0,14.69145 -0.04704,21.459804 -0.15316,22.03782 -0.181703,0.989693 -0.889751,2.217294 -1.601857,2.777271 -1.103334,0.867627 -2.638357,1.295653 -3.830751,1.068169 z"
     id="path4777"
     inkscape:connector-curvature="0" />
</svg>
